<svg version="1.2" xmlns="http://www.w3.org/2000/svg" viewBox="0 0 1024 1024" width="1024" height="1024">
	<title>ITMT_4</title>
	<style>
		.s0 { opacity: 1;fill: #f5e4b2 } 
		.s1 { opacity: 1;fill: #dc4823 } 
		.s2 { opacity: 1;fill: #293524 } 
		.s3 { opacity: 1;fill: #e48f0f } 
		.s4 { fill: #c37011 } 
		.s5 { opacity: 1;fill: #191709 } 
		.s6 { opacity: 1;fill: #181701 } 
	</style>
	<g id="Folder 1">
		<path id="Path 0" class="s0" d="m665.9 168.7c-1.8 1 0.1 2.7 6.7 6.2 4.2 2.2 9.3 5.3 11.5 7l4 2.9c0.5-3.5 1.2-7 0.4-8.6-0.7-1.6-2.7-4.2-4.5-5.7-2.7-2.4-5.7-3.3-10.1-3.2-2.9 0-6.9 0.9-8 1.4zm226.1 258.9c-1.4 0.3-5.9 1.2-10 2-4.1 0.9-10.9 2.9-15 4.5-4.1 1.5-8.7 4.1-10.2 5.6-1.5 1.5-3.7 4.4-4.8 6.3-1.1 1.9-2.8 5.1-3.6 7-0.9 1.9-2 6.2-2.4 9.5-0.5 3.3-0.5 8.3 0 11 0.4 2.8 1.5 6.6 2.3 8.5 0.9 1.9 1.9 4.1 2.4 4.8 0.6 1.1 2.6 0.7 9.8-1.6 5-1.7 13.5-3.8 19-4.8 6.9-1.3 14.6-1.9 24.5-1.8 8 0 17 0.6 20 1.3 3 0.7 7 2 8.9 2.9 1.9 0.9 3.9 2.5 4.5 3.5 0.8 1.3 0.8 2-0.4 2.8-1 0.6-7.6 0.8-19 0.4-13.7-0.5-20.1-0.3-29.5 1-6.6 0.9-15.5 2.8-19.7 4.1-5.1 1.5-9.1 3.5-11.4 5.7-2 1.7-4.6 5.5-5.9 8.2-1.3 2.8-2.6 6.6-3 8.5-0.5 2.3-0.1 5.3 1.1 9 1 3 3.2 7.1 4.9 9 1.9 2.1 5.8 4.6 9.8 6.3 3.7 1.5 10.6 3.4 15.5 4.3 5.6 1 16.9 1.8 31.7 2.1 19.9 0.4 23.2 0.7 24.2 2.1 1.1 1.5 0.5 2.1-4.5 4.5-3.1 1.5-9.3 3.4-13.7 4.2-4.7 0.9-13.8 1.5-22 1.5-7.7 0-16.9-0.5-20.5-1.1-3.6-0.5-10.5-2.6-15.5-4.5-5-2-9.3-3.2-9.6-2.7-0.4 0.4-1.5 3.3-2.5 6.3-1 3-1.8 8-1.8 11 0 4.1 0.9 7.3 3.3 12.5 1.8 3.9 4.5 8.6 6 10.5 1.6 1.9 5.9 5.1 9.7 7.1 3.8 2.1 10.9 4.7 15.9 6 7.7 2 11.6 2.3 26.5 2.4 16 0 18.2-0.2 25-2.5 4.1-1.3 10.2-4.2 13.5-6.5 3.6-2.4 7.3-6 9.3-9 1.8-2.7 3.8-6.8 4.4-9 0.6-2.4 0.8-7.9 0.4-13.7-0.3-5.4-0.3-9.8 0.2-9.8 0.4 0 2.9-3 5.7-6.8 2.7-3.7 6-9.2 7.2-12.2 1.6-4 2.3-7.6 2.3-13 0-4.1-0.6-9.5-1.5-12-0.8-2.5-3.3-6.6-5.5-9.2-3.8-4.6-3.9-4.9-2.5-7.5 0.8-1.6 2.5-4.8 3.7-7.3 1.9-3.9 2.3-6.1 2.3-15.5 0-10.7-0.1-11.3-3.6-18.5-2.1-4.1-5.7-9.5-8.1-12-2.3-2.5-6.6-5.7-9.3-7.2-2.8-1.5-9-3.9-14-5.4-7.9-2.4-10.9-2.7-25.5-3-9.1-0.1-17.6 0-19 0.2zm-793 8.5c-3.6 0.5-10.3 2.1-15 3.6-4.7 1.5-10.5 4.1-13 5.8-2.5 1.7-6.6 5.8-9.1 9.1-2.5 3.2-5.6 8.6-6.9 11.9-2 5-2.4 7.8-2.5 16.5 0 10 0.1 10.8 3.3 16.3l3.2 5.7c-6.6 8.9-9.1 13.5-9.9 16-0.8 2.8-1.1 7.7-0.9 13 0.3 6.4 1.1 9.9 3 14 1.4 3 4.9 8.4 7.7 12 3.1 3.9 5.2 7.5 5.2 9 0 1.4 0.1 6.5 0.2 11.5 0.2 8.2 0.5 9.6 3.7 15.4 2.3 4.2 5 7.5 8 9.6 2.5 1.8 6.5 4.3 9 5.5 2.5 1.2 7.9 3.1 12 4.2 5.1 1.3 10.8 1.9 18 1.8 5.8 0 13-0.4 16-0.9 3-0.5 8.4-1.7 12-2.6 3.6-0.9 8.8-2.7 11.5-3.9 2.8-1.2 7-4 9.3-6.2 2.4-2.1 5.7-6.1 7.2-8.9 1.6-2.7 3.6-7.9 4.5-11.5 0.9-3.6 1.4-7.8 1.1-9.5-0.3-1.6-1.3-5.4-2.1-8.2-1.4-5-1.7-5.3-4.2-4.8-1.6 0.3-5.9 1.9-9.8 3.5-3.8 1.5-10.5 3.5-14.7 4.4-4.3 0.9-12 1.6-17 1.6-5.1 0-12.7-0.5-16.8-1-4.1-0.6-9.5-1.7-12-2.5-2.5-0.8-5.8-2.6-7.5-3.9-2.5-2-2.8-2.6-1.7-4 1-1.3 2.8-1.5 10-1.2 4.8 0.1 15.5 0 23.7-0.5 9.7-0.5 17.8-1.5 23-2.8 4.4-1.2 11.3-3.7 15.3-5.6 5.9-2.9 7.7-4.4 10.2-8.2 2.5-3.9 3-5.9 3-10.5 0-3.4-0.9-8.2-2.1-11.5-1.2-3.2-3.1-6.8-4.3-8.1-1.1-1.2-4.6-3.3-7.6-4.7-3-1.3-8.9-3.3-13-4.4-4.1-1-12.2-2.4-18-3-6.5-0.7-16.5-0.9-26.5-0.5-14.2 0.6-16.1 0.5-17.2-1-1.1-1.4-0.8-2 2-4 1.7-1.3 5-3 7.2-3.7 2.9-1 9.7-1.4 25-1.4 18.8 0.1 21.9 0.3 29.5 2.4 4.7 1.3 11 3.2 14 4.3 5.4 2 5.5 2 6.8 0.2 0.7-1.1 2.2-4.4 3.3-7.4 1.2-3 2.4-8.4 2.7-12 0.3-4.7 0-8-1.3-12-1-3-2.9-7.5-4.4-9.9-1.4-2.5-4.6-6-7.1-7.8-2.5-1.9-7.2-4.2-10.5-5.3-3.3-1.1-10.5-2.7-16-3.5-5.5-0.8-15.2-1.4-21.5-1.4-6.3 0.1-14.4 0.5-18 1zm543.5 445.9c-0.3 0.6-0.3 2 0 3.3 0.3 1.2 1.4 3.1 2.5 4.2 1.1 1.1 2.1 2.6 2 3.3 0 0.6 3.5 2.8 7.8 4.8 4.2 1.9 12 5 17.2 6.9 5.2 1.8 15.6 4.6 23 6.3 7.4 1.7 19.8 4 27.5 5.1 7.7 1.2 20.3 2.4 28 2.7 10.1 0.5 18.1 0.2 28.5-1 8-0.9 18.5-2.7 23.5-4 5-1.4 11-3.3 13.5-4.4 2.5-1.1 5.5-3 6.8-4.3 1.2-1.3 2.7-4.2 3.2-6.4 0.5-2.2 1-5.2 1-6.7v-2.8c-10.5 5.2-17.3 7.7-22 8.9-4.7 1.1-13.9 2.8-20.5 3.6-7 0.9-19.5 1.6-30 1.6-10.3-0.1-23.1-0.7-30-1.6-6.6-0.9-14.7-2-18-2.6-3.3-0.5-12.3-2.3-20-4-7.7-1.7-18.7-4.6-24.5-6.6-5.8-1.9-12.2-4.4-14.2-5.4-2.1-1.1-4-1.9-4.3-1.9-0.2 0-0.6 0.5-1 1zm-17-708.4c-1.1 0.2-4.5 0.9-7.5 1.5-3 0.6-9.1 2.8-13.5 4.9-5.5 2.6-10.3 5.9-15.5 10.7-4.1 3.9-8.8 8.9-10.5 11.2-1.6 2.3-2.6 4.5-2.1 4.9 0.4 0.4 5.6 1.5 11.5 2.5 5.8 1 17.2 4 25.4 6.8 8.1 2.7 19.1 6.8 24.5 9.2 5.3 2.3 13.7 6.7 18.7 9.6 5 3 12.4 8 16.5 11.1 4.1 3.2 13.7 11.2 21.3 17.9 7.5 6.6 14.2 12.1 14.7 12.1 0.5 0 2.2-3.7 3.6-8.3 2.2-6.7 2.7-10.2 2.7-19.2 0.1-8.7-0.4-12.5-2.2-18.5-1.2-4.1-4-10.4-6.1-14-2.1-3.6-6-8.5-8.6-11-2.7-2.5-10.3-8.2-16.9-12.6-6.6-4.4-15.4-9.7-19.5-11.7-4.1-2-10-4.2-13-5-3-0.8-9.1-1.7-13.5-2-4.4-0.3-8.9-0.4-10-0.1zm-333.3 8.6c-1.9 1.2-3.4 3.6-4.4 5.3-1 1.6-2.5 5.2-2.4 6.6 0.3 2.7 1.5 2.8 12.9-5 9.6-6.5 12.2-7.3 10.5-8.2-1.1-0.5-6-1.3-8.4-1.3-2.8 0-6 1.1-8.2 2.6zm36.3 5.4c-3.3 0.8-10 3.5-15 6.1-4.9 2.5-11.7 6.3-15 8.6-3.3 2.2-8.7 6.2-12 8.8-3.3 2.7-7.9 7.2-10.1 10.1-2.3 2.9-5.8 8.4-7.7 12.3-1.9 3.8-4.2 9.7-5 13-0.9 3.3-1.8 8.7-2.2 12-0.4 3.4-0.2 9.5 0.5 14 0.7 4.4 2.3 10.9 3.7 14.5 1.3 3.6 2.8 8.3 3.2 8.7 0.4 0.5 8.4-7.4 18-15.9 9.5-8.4 20.5-17.7 24.5-20.6 3.9-3 16.3-10.9 27.6-17.6 11.3-6.8 27.5-15.9 36-20.4 8.5-4.5 17.7-8.8 18.8-9.6 2-1.5 0.7-1.5-2.3-4.6-1.6-1.8-5.7-5.1-9-7.5-3.3-2.4-8.9-5.7-12.5-7.4-3.6-1.7-9.6-3.8-13.5-4.6-3.8-0.8-10.4-1.4-14.5-1.4-4.1 0-10.2 0.7-13.5 1.5zm156.5 84.4c-5.8 0.4-14.8 1.6-20 2.5-5.2 1-14.9 3.5-21.5 5.7-6.6 2.2-16 5.9-21 8.2-4.9 2.3-13.3 6.7-18.5 9.8-5.2 3.1-13.1 8.2-17.5 11.5-4.4 3.3-13.6 11.2-20.5 17.6-6.9 6.4-16.4 15.1-20 19.2-3.6 4.2-9.3 11.6-12.7 16.3-3.4 4.8-8.9 13.9-12.1 20.2-3.3 6.3-7.6 15.7-9.6 20.7-2 5.1-4.9 16.1-6.5 22-1.6 6-3.7 14.4-4.5 18.8-0.9 4.4-2.3 13.8-3.1 21-0.8 7.1-1.5 17-1.5 22 0 4.9 0.9 14.8 1.9 22 1.1 7.1 3.3 18.6 4.9 25.5 1.7 6.9 4.7 17.2 6.7 23 2 5.8 6.8 16.8 10.7 24.5 3.9 7.7 8.9 16.7 11.1 20 2.2 3.3 6.8 9.6 10.2 14 3.5 4.4 11.5 13.1 16.6 18 5.2 5 12.8 11.8 16.9 15.1 4.1 3.2 11.3 8.5 16 11.6 4.7 3.1 12.8 7.9 18 10.6 5.2 2.8 14.2 6.9 20 9.2 5.8 2.3 16.4 5.7 23.5 7.5 7.2 1.8 18 4.1 24 5 6.7 1 17.3 1.7 27 1.7 8.8 0 19.8-0.5 24.5-1.1 4.7-0.7 13.2-2.1 19-3.2 5.8-1.1 15-3.4 20.5-5 5.5-1.7 14.3-4.9 19.5-7.1 5.2-2.1 13.8-6.2 19-9 5.2-2.8 12.7-7.2 16.5-9.8 3.9-2.6 10.6-7.6 15-11.1 4.4-3.4 11.4-9.7 15.5-13.8 4.1-4.2 11.8-10.9 15.9-16.1 4-5.2 10.8-14.5 13.9-19.5 3-5 7.2-15.4 10.4-22 3.1-6.6 7.6-17.4 9.8-24 2.3-6.6 5-15.6 6-20 1-4.4 2.7-13.4 3.6-20 1.2-7.9 1.8-17.8 1.8-29 0-9.4-0.6-21.3-1.3-26.5-0.7-5.2-2.4-14.7-3.8-21-1.4-6.3-4.3-16.7-6.5-23-2.1-6.3-6.7-19.4-10.3-26.5-3.5-7.1-8.9-16.6-11.9-21-3.1-4.4-11.7-13.8-17.9-20.9-6.1-7.1-15.5-16.9-20.7-21.9-5.2-4.9-12-10.9-15-13.2-3-2.3-9.5-6.7-14.5-9.7-5-3.1-12.1-7.1-16-9-3.8-2-11.3-5.2-16.5-7.3-5.2-2-14.7-5-21-6.6-6.3-1.6-16-3.5-21.5-4.4-5.5-0.8-17.2-1.7-26-1.9-8.8-0.3-20.7-0.1-26.5 0.4zm374.5 45.9c-1.6 0.4-4.3 1.5-6 2.3-1.6 0.9-4 2.7-5.2 4-1.2 1.2-3.4 5-5 8.3-2.5 5.5-2.7 7-2.7 18-0.1 6.6 0.3 19 0.8 27.5 0.8 13.1 0.6 16.8-0.8 24-1 4.7-3.3 11.6-5.1 15.5-1.9 3.8-7.5 12.4-12.6 19-5 6.6-10.9 15.6-13 20-2.4 4.9-4.5 11.1-5.4 16-0.8 4.4-1.4 11.1-1.5 15 0 3.8 0.6 9.2 1.4 12 0.7 2.7 2.1 6.6 3.1 8.5 1 1.9 4 6.2 6.7 9.5 3.6 4.3 4.9 6.7 4.6 8.5-0.2 1.9-0.8 2.4-2.5 2.2-1.5-0.1-2.5 0.4-2.8 1.5-0.2 1-0.9 4.9-1.6 8.8-0.6 3.8-0.9 9.9-0.6 13.5 0.3 3.6 1.3 9.6 2.2 13.5 1 3.8 2.8 9 4 11.5 1.3 2.5 3.8 6.4 5.7 8.7 1.8 2.3 5.8 6 8.8 8.3 3 2.2 7.1 4.1 8.5 5.2 1.7 1.4 7.5 4.6 8.2 5.3 0.7 0.7 1.7 1.3 2.3 1.3 0.5 0-0.1-1.1-1.3-2.4-1.2-1.4-8.1-8.8-10.4-13.1-2.3-4.3-4.8-10.5-5.7-13.8-0.9-3.3-1.6-9-1.6-12.8 0-3.7 0.5-8.6 1-11 0.6-2.3 2.6-6.1 4.5-8.5l3.5-4.2c-3.7-8.9-5.1-13.8-5.5-16.5-0.4-2.8-0.2-7.6 0.5-11 0.7-3.3 2.3-7.9 3.6-10.3l2.4-4.2c-7.4-15.3-7.5-15.9-7.9-28.5-0.3-10.1 0-14.3 1.4-19 0.9-3.3 3.1-8.2 4.8-10.9 1.8-2.8 5.8-6.7 9.2-9.2 3.3-2.3 8.7-5.3 12-6.7 3.3-1.4 9.4-3.4 13.5-4.5 4.1-1.1 10.1-2.3 13.3-2.6l5.7-0.6c3.2-10.5 5-17.9 6-23.3 1.2-5.9 2-13.7 2-20.2 0-6.1-0.7-13.6-1.6-17.8-0.9-3.9-2.7-9.5-3.9-12.2-1.2-2.8-4-7.3-6.2-10-2.1-2.8-6.4-6.7-9.4-8.7-3-2-8.1-4.4-11.4-5.2-3.3-0.9-6.2-1.6-6.5-1.5-0.3 0.1-1.8 0.4-3.5 0.8zm-709.5 10.4c-1.9 0.7-5.5 2.4-8 3.9-2.5 1.4-6.3 4.5-8.4 6.9-2.2 2.4-5.2 7.1-6.8 10.4-1.5 3.3-3.5 9.4-4.4 13.5-1.2 5.6-1.5 10.5-1.1 19 0.4 7.4 1.5 15.1 3.1 21.5 1.4 5.5 3.2 11.8 4 14 1.1 3.3 2 4.1 4.7 4.8 1.9 0.4 8.4 1.9 14.4 3.3 6.6 1.5 13.6 3.9 17.5 6 3.6 1.9 8.7 5.1 11.5 7.2 2.7 2 6.2 5.7 7.7 8.2 1.5 2.5 3.5 7.6 4.3 11.5 0.8 3.8 1.5 10.6 1.5 15 0 4.4-0.7 10.7-1.6 14-0.8 3.3-2.8 8.4-4.5 11.2l-2.9 5.3c4.7 7.4 6.5 12 7.1 15 0.6 3 1 8 0.7 11-0.2 3.7-1.4 7.7-3.7 12l-3.3 6.5c7.3 12.3 7.7 13.8 8.1 21 0.2 4.4-0.2 10.5-0.9 13.5-0.7 3-2.6 8.4-4.2 12-1.6 3.6-4.3 8.5-5.9 11-1.7 2.5-6.5 6.6-6.1 6.8 0.3 0.3 2.6-0.3 5.2-1.4 2.7-1.1 10.6-5.5 13.3-7.6 2.6-2.1 6.5-6.2 8.6-9.1 2.2-2.8 5.1-7.8 6.5-11 1.4-3.1 3.3-8.5 4.1-12 0.8-3.4 1.5-10.8 1.5-16.5 0-5.6-0.4-11.3-1-12.7-0.7-1.7-1.9-2.6-3.7-2.8-2.1-0.1-2.9-0.8-3-2.5-0.2-1.4 1-3.5 3.5-6 2.1-2 5.2-6.6 7-10.2 1.7-3.6 4.1-10.1 5.3-14.5 1.6-6.2 1.9-9.7 1.5-15.5-0.3-4.1-1.3-10-2.2-13-0.9-3-3.1-8.4-5-12-1.9-3.6-7.6-12.1-12.7-19-5-6.9-10.9-16.2-13-20.5-2.1-4.6-4.3-11.4-5.2-16-0.8-4.4-1.4-10.7-1.4-14-0.1-3.3 0.8-12.3 1.9-20 1.1-7.7 2-17.3 2-21.3 0-4.9-0.7-9-2.2-13-1.1-3.1-3.5-7.1-5.3-8.7-1.7-1.7-5.6-3.8-8.6-4.7-2.9-1-7.9-1.8-10.9-1.7-3 0-7.1 0.5-9 1.2zm639.7 174.8c-1.5 4.1-3.4 10.5-4.3 14.4-1 4.2-1.7 11-1.6 17 0 7.4 0.6 11.9 2.2 17 1.2 3.8 3.5 9.5 5.1 12.5 1.6 3 7 10.6 9.2 12.8 2.2 2.2 4.3 3.6 4.8 3.2 0.4-0.4 0-3.7-1-7.3-1.1-4.1-4.1-13.3-4.1-19.7 0-6.1 0.8-14 2.1-20.3l2-10.2c-5.8-9.3-8.5-15.3-9.6-19.4l-2-7.4zm-559.7 4.7c-0.6 3.5-2.8 10.3-5.9 15.7l-5 9c2.3 6.2 2.1 11.5 2.8 15 1.1 4.9 1.2 9.2 0.5 17.5-0.5 6.1-0.3 13.4-1.4 17-1.1 3.6-2.3 7.4-2.6 8.5-0.5 1.4-0.8 2 2 1 1.5-0.6 3.4-2.3 4-2.8 0.8-0.7 3.1-4.9 6-10.9 2.5-5.1 5.2-12.7 6.1-16.8 0.8-4.1 1.9-9.5 2.4-12 0.5-2.5 0.9-7.9 1-12 0-4.1-0.7-10.4-1.5-14-0.8-3.6-2.4-9.3-3.5-12.7-1.1-3.5-2.6-7.5-3-7.7-0.4-0.3-1.3 2.1-1.9 5.2zm504.5 284.2c-0.3 1.1-4.1 4.3-8.3 7.1-4.3 2.7-10.2 5.9-13.3 7.1-3 1.1-9 2.3-13.5 2.5-5.1 0.3-10.5 0-15-1-3.8-0.8-10.7-2.9-15.2-4.6-6.6-2.4-8.3-3.5-8.3-5.1 0-1.1-0.4-2-1-2-0.5 0-2.4 1.3-4.1 2.8-1.7 1.5-3.8 4.1-4.6 5.7-0.8 1.7-1.5 4.8-1.5 7-0.1 2.2 0.7 5.5 1.6 7.3 0.9 1.8 3.5 4.4 5.9 5.9 2.3 1.5 6.7 3.8 9.7 5.1 3.1 1.4 7.2 2.8 9.3 3.1 3.1 0.5 3.8 1 3.7 2.9 0 2-0.3 2.2-4.2 1.7-2.4-0.3-7.6-0.9-11.8-1.3-4.1-0.5-8.3-0.7-9.3-0.4-1.1 0.2-2.7 2.5-3.9 5.6-1.3 3.2-2.2 8.4-2.6 14.1l-0.5 9c5.3 6 8.6 8.8 10.8 10 2.2 1.3 8.8 3.9 14.5 5.9 5.8 1.9 18.2 4.8 27.5 6.5 9.4 1.7 22.1 3.7 28.3 4.6 6.2 0.8 14.9 1.5 19.5 1.5 4.5 0 14.3-0.4 21.7-1 7.5-0.5 17.4-1.7 22-2.6 4.7-0.8 11.9-2.6 16-3.9 5.5-1.7 8.9-3.5 12.4-6.7l4.9-4.3c-1.9-10.1-3.4-15.2-4.7-18-1.2-2.7-4-7.4-6.1-10.3-2.2-3-6-6.6-8.5-8.1-2.4-1.5-7.4-3.9-11-5.4-3.5-1.4-9.8-3.1-14-3.7-4.3-0.7-11.7-1-17.5-0.7-5.5 0.3-14.7 1.8-20.5 3.2-5.7 1.4-16.1 4.4-23 6.6-11.5 3.7-12.6 3.9-14.7 2.5-1.6-1.1-2.3-2.6-2.3-4.8 0-2.7 0.5-3.5 2.7-4.4 1.6-0.6 8.1-2.8 14.6-4.8 10.8-3.3 12-3.9 15.2-7.8 1.9-2.4 4-6.2 4.5-8.5 0.6-2.4 1-6.4 1-9 0-3-0.7-6-2-8-1.1-1.8-2.4-3.3-2.9-3.3-0.5 0-1.1 0.9-1.5 2zm-460.3 2.8c-0.9 1.5-1.9 5-2.2 7.7-0.3 4 0.2 6.2 2.3 10.8 1.4 3.1 3.4 5.9 4.4 6.2 0.9 0.2 2.9 1.4 4.2 2.5 1.4 1.1 5.9 3.3 10 4.7 4.2 1.4 10 3.6 13 4.7l5.5 2.1v9c-5.4-0.5-12.4-2.3-19-4.4-6.6-2.1-16.9-5.1-23-6.6-8.9-2.2-13.2-2.7-23-2.6-7.5 0-14.1 0.6-17.7 1.6-3.2 0.8-8.6 2.9-12 4.5-3.5 1.7-8 4.7-10.2 6.8-2.1 2-5.2 5.7-6.8 8.2-1.6 2.5-3.7 7.4-4.8 11-1.1 3.6-2 8.2-2 10.3 0 2.9 0.8 4.4 3.3 6.9 1.8 1.7 5.7 4.3 8.7 5.6 3.1 1.4 10.7 3.6 17 4.8 6.4 1.3 17 2.8 23.8 3.4 6.7 0.5 16.2 1 21 1 4.8 0 12.6-0.4 17.2-1 4.7-0.6 16.6-2.4 26.5-4 9.9-1.7 21.9-4 26.5-5.1 4.7-1.1 11.9-3.5 16-5.2 4.2-1.7 9.1-4.5 11-6.2 2-1.8 3.9-4.4 4.3-5.8 0.4-1.5 0.3-5.7-0.3-9.4-0.6-3.7-2.5-9.9-4.3-13.7l-3.2-6.8c-7.7 0.9-13.7 1.5-18.4 1.9-7.7 0.8-8.3 0.7-8-1 0.3-1.2 2.7-2.6 7.4-4.2 3.9-1.4 9.4-4.2 12.4-6.2 2.9-2.1 6.2-5.1 7.2-6.8 1-1.6 2.2-4.6 2.5-6.5 0.5-2.4 0.1-4.9-1.3-8-1-2.5-2.9-5.5-4.1-6.7-1.2-1.3-2.6-2.3-3.2-2.3-0.5 0-1 0.6-1 1.3 0 0.7-4.1 3.3-9.2 5.9-5.1 2.6-11.3 5.3-13.8 5.9-2.4 0.7-8.5 1.2-13.5 1.2-6.1-0.1-11.1-0.8-15.5-2.2-3.5-1.1-10-4.3-14.2-7.1-4.3-2.7-8-5.9-8.3-7-0.2-1.1-1.1-2-2-2-0.8 0-2.2 1.3-3.2 2.8zm97.1 85.1c-1.1 1.5-5.3 4-9.4 5.8-4.1 1.8-11.3 4.3-16 5.7-4.6 1.3-14.1 3.6-21 5-6.8 1.4-18.1 3.3-25 4.3-9.1 1.2-19.6 1.7-39 1.7-25.1 0.1-27.1-0.1-39.2-2.7-7-1.5-15.6-3.8-19-5.2-3.5-1.4-8-3.7-10-5-2.1-1.4-4-2.5-4.3-2.5-0.2 0-0.2 1.9 0.2 4.3 0.3 2.3 1.2 5.8 2 7.7 0.8 1.9 2.2 4.4 3.1 5.4 1 1 3.9 2.9 6.5 4.2 2.6 1.3 8 3.3 12 4.4 4 1.1 12 2.7 17.7 3.5 5.9 0.8 17.8 1.5 27 1.5 9.1 0 21.7-0.4 28-1 6.4-0.5 18.3-2.3 26.5-4 8.3-1.6 20-4.3 26-5.9 6.1-1.6 15.1-4.7 20-6.8 5-2 10.4-4.7 12-5.8 1.7-1.1 3.6-3.2 4.3-4.5 0.6-1.4 1.3-4.6 1.3-7.2 0.1-2.5-0.3-4.9-0.8-5.1-0.5-0.2-1.8 0.8-2.9 2.2z"/>
		<path id="Path 0" fill-rule="evenodd" class="s1" d="m510 227.5c13.2 0.2 23.5 0.9 29 1.9 4.7 0.9 14.1 3 21 4.7 6.9 1.7 18.1 5.1 25 7.6 6.9 2.4 19.7 8 28.5 12.3 8.8 4.3 21.6 11.6 28.5 16.2 6.9 4.5 16.8 11.7 22 15.9 5.2 4.2 15.7 14.1 23.4 22 7.6 7.9 16.4 17.8 19.4 21.9 3.1 4.1 8.5 12.1 11.9 17.8 3.5 5.6 9.2 15.9 12.7 22.9 3.5 7.1 8.4 18.2 10.9 24.8 2.5 6.6 5.9 17.2 7.6 23.5 1.7 6.3 3.8 14.9 4.6 19 0.9 4.1 2.3 14 3.1 22 0.9 8 1.6 20.6 1.7 28 0 7.4-0.5 17.1-1.2 21.5-0.6 4.4-2.8 15.6-4.7 25-1.9 9.4-4.4 20.4-5.6 24.5-1.1 4.1-4.4 13.4-7.3 20.5-2.8 7.1-7.9 18.4-11.3 25-3.3 6.6-10.2 18.3-15.2 26-8 12.1-11.3 16.1-25.3 30.1-10 9.9-21 19.6-28.8 25.5-7 5.2-17.3 12.2-23 15.6-5.7 3.3-16.7 9.3-24.4 13.1-7.7 3.8-18.5 8.6-24 10.7-5.5 2-16.3 5.3-24 7.2-7.7 1.9-19.2 4.3-25.5 5.5-6.3 1.1-18 2.2-26 2.5-11.3 0.4-18 0-30.5-1.6-8.8-1.1-20.9-3.2-27-4.6-6.1-1.4-15.1-3.6-20-5-4.9-1.4-13.3-4.2-18.5-6.1-5.2-1.9-15.1-6.2-22-9.5-6.9-3.3-16.3-8.3-21-11.1-4.7-2.8-13.4-8.8-19.5-13.3-6.1-4.5-15.9-12.7-22-18.2-6.1-5.5-13.3-12.7-16.1-15.9-2.8-3.2-7.8-9.5-11.1-13.9-3.3-4.4-8.7-12-11.8-17-3.2-5-8.4-14-11.6-20-3.2-6-8.3-17.1-11.3-24.5-3-7.4-7.1-18.5-9-24.5-2-6-4.2-14.3-5.1-18.3-0.8-3.9-1.9-14.6-2.5-23.7-0.6-9.1-1-24.9-1.1-35.3-0.1-10.3 0.4-22.8 1-27.7 0.7-4.9 2.3-14.2 3.7-20.5 1.4-6.3 4-15.8 5.6-21 1.7-5.2 5.1-14.2 7.5-20 2.4-5.8 8-17.5 12.4-26 4.5-8.5 11.3-20 15.3-25.5 3.9-5.4 11.4-14.7 16.7-20.5 5.3-5.8 13.8-14.4 19-19.1 5.2-4.7 13.5-11.9 18.4-15.9 4.9-4 14.4-10.9 21-15.2 6.6-4.3 16.7-10.3 22.5-13.3 5.8-2.9 15.4-7.4 21.5-9.9 6.1-2.4 16.4-6 23-7.9 6.6-1.9 16.9-4.1 22.9-4.9 6-0.8 14.3-1.9 18.5-2.5 4.4-0.7 16.3-1 28.1-0.8zm-50 38.5c-5.8 1.2-16.6 4.1-24 6.6-7.4 2.5-20.2 7.8-28.5 11.9-8.2 4-18.6 9.9-23 13-4.4 3-12 9-16.9 13.3-4.9 4.2-15 14.6-22.5 23-7.5 8.5-16 18.8-18.9 23-2.9 4.2-7.9 12.4-11.2 18.2-3.2 5.8-6.9 12.8-8 15.5-1.2 2.8-4 9.7-6.2 15.5-2.1 5.8-5.5 16.6-7.5 24-1.9 7.4-4.6 20.9-5.9 30-1.3 9.1-2.4 21-2.4 26.5 0 6 1 16.2 2.5 25.5 1.4 8.5 3.7 20.7 5.1 27 1.5 6.3 4.2 16.2 6.1 22 1.9 5.8 5.5 14.5 8 19.5 2.5 5 7.6 14.2 11.3 20.5 3.7 6.3 9.5 15.2 12.9 19.8 3.4 4.5 9.6 11.9 13.9 16.3 4.2 4.5 13.3 12.7 20.2 18.2 6.9 5.5 17.9 13.6 24.5 18 6.6 4.4 14.7 9.3 18 10.9 3.3 1.7 10.1 4.6 15 6.5 4.9 1.9 14.9 5 22 6.8 7.1 1.8 20 4.6 28.5 6.1 13.5 2.5 17.9 2.9 34 2.8 12.7 0 21.6-0.6 28.5-1.8 5.5-0.9 16.1-3.2 23.5-5.1 7.4-1.8 17.5-4.8 22.5-6.5 5-1.8 14.9-6 22-9.4 7.1-3.4 17-8.8 22-12 5-3.2 12.6-8.7 17-12.1 4.4-3.4 12-10.4 16.9-15.6 4.9-5.2 13.3-15.3 18.6-22.4 5.4-7.1 12.4-17 15.5-22 3.1-5 7.7-13.3 10.2-18.5 2.4-5.2 6.4-15.1 8.8-22 2.3-6.9 5.2-16.5 6.3-21.5 1.2-5 3.1-15.1 4.2-22.5 1.3-8.8 2-18.4 2-27.5 0-7.7-0.5-18.1-1-23-0.6-4.9-1.7-13.3-2.6-18.5-0.8-5.2-3-15.4-4.9-22.5-1.9-7.1-5-17.7-7-23.5-2-5.8-5.8-14.6-8.3-19.5-2.6-4.9-7.6-13.3-11.1-18.5-3.5-5.2-10-14-14.6-19.5-4.5-5.5-12.5-14.3-17.7-19.5-5.1-5.2-12.7-12.2-16.8-15.6-4.1-3.3-10.4-8.1-14-10.6-3.6-2.5-10.8-6.9-16-9.6-5.2-2.8-12.9-6.5-17-8.2-4.1-1.7-13.8-4.9-21.5-7.1-7.7-2.2-18.5-4.8-24-5.9-5.5-1.1-14.7-2.4-20.5-3-5.8-0.6-17.2-1-25.5-0.9-8.2 0.1-18.8 0.5-23.5 1-4.7 0.5-13.2 1.8-19 2.9z"/>
		<path id="Path 0" class="s2" d="m631.7 242.9c-1.6 2.9-1.6 3.2 0 4.4 1 0.7 4.7 3.2 8.3 5.5 3.6 2.3 6.8 4.2 7.2 4.2 0.5 0 2.1-1.7 2.9-3.9 1.5-3.9 1.5-4-1.2-6.5-1.5-1.3-5.3-3.4-7.7-4.4-2.4-0.9-5.4-2-6.3-2.4-1.1-0.5-2.1 1-3.2 3.1zm-294.1 12.8c-4.4 2.7-8.1 5.2-8.4 5.8-0.2 0.6-0.1 1.9 0.3 3 0.4 1.1 0.8 2.9 0.9 4 0 1.2 1.2 3.5 2.6 5.2 1.4 1.8 2.9 3.2 3.5 3.3 0.5 0 1.7-0.7 2.5-1.6 0.8-0.9 6.1-5.1 11.7-9.3 5.6-4.2 10-7.9 9.8-8.4-0.3-0.4-1.2-0.5-2-0.2-0.8 0.3-3.4-1.1-5.8-3-2.3-2-4.9-3.5-5.7-3.5-0.8 0-5.1 2.1-9.4 4.7zm434.3 229.5c-0.7 1.4-1 5.4-0.7 10.3 0.3 4.4 0.1 10.2-0.4 13-0.4 2.7-1.2 9.3-1.7 14.5-0.6 5.2-2.1 14.1-3.5 19.7-1.4 5.7-2.6 11.4-2.6 12.8 0 1.4 0.6 2.8 1.2 3.2 0.8 0.3 2.6-0.8 4.4-2.8 3-3.4 3.1-3.6 3.6-16.9 0.5-11.2 1.1-15.4 3.8-24.5 1.7-6.1 4.7-14.7 6.6-19.3 2.6-6.2 3.1-8.4 2.1-8.9-0.6-0.4-2.8-1.3-4.7-2-1.9-0.7-4.3-1.3-5.2-1.3-1 0-2.3 1-2.9 2.2zm-442.6 215.5c-4.4 4.3-10.5 11.2-13.5 15.3-3.1 4.1-7.6 11.3-10.1 16-2.5 4.7-6.7 14.8-9.3 22.5-4 12-4.7 15.4-5.1 24-0.4 9.9-0.4 10 2.4 12.8 1.5 1.5 5 3.7 7.8 4.9 3.9 1.7 7.4 2.3 15.5 2.5 9.3 0.3 11.4 0 19-2.5l8.5-2.8c-0.5-5.4-1.2-7.8-1.7-8.9-0.6-1.2-0.8-4.3-0.4-7.5 0.4-3 1.6-9.2 2.7-13.8 1-4.5 3.1-10.6 4.6-13.5 1.4-2.8 4.1-7.5 5.8-10.2 1.8-2.8 5.7-7.3 8.6-10 3-2.8 7.1-6.1 9.1-7.3 2.1-1.2 3.8-2.4 3.8-2.7 0-0.3-3.3-2.1-7.3-4.1-3.9-2-10.6-6-14.7-8.8-4.1-2.7-9.1-6.4-11-8.1-1.9-1.7-4.2-3.6-5.1-4.3-1.4-1.1-2.7-0.2-9.6 6.5zm335.6-1.7c-3.5 2.8-10.7 7.9-15.9 11.5-5.2 3.5-10.5 6.4-11.8 6.5-1.2 0-2.4 0.5-2.7 1-0.3 0.5 0.7 1.7 2.2 2.7 1.6 0.9 4.4 2.7 6.3 3.9 1.9 1.3 5.6 4.3 8.2 6.6 2.5 2.4 6.4 7.2 8.6 10.8 2.1 3.6 5 9.4 6.5 13 1.4 3.6 3.3 9.2 4.3 12.5 0.9 3.3 1.8 10.2 1.9 15.5l0.2 9.5c6.6 2.4 12 2.9 20.8 2.9 11.8 0 13.4-0.2 17.5-2.3 2.5-1.3 6.1-3.6 8-5.1l3.5-2.8c-0.6-12.9-1.1-17.5-1.6-18.5-0.5-0.9-0.9-2.6-0.9-3.7 0-1.1-1.6-6.2-3.6-11.3-2-5-5.2-12.3-7.1-16.2-2-3.9-5.4-9.7-7.6-13-2.2-3.3-6.8-8.9-10.1-12.4-3.4-3.5-8.8-8.2-12.1-10.6-3.3-2.3-6.5-4.5-7.1-4.8-0.7-0.4-4.1 1.6-7.5 4.3z"/>
		<path id="Path 0" class="s3" d="m368 68.7c-1.4 0.2-5.9 1.1-10 1.9-4.1 0.9-13.4 3.6-20.5 6-7.1 2.5-13.2 4.7-13.5 4.9-0.3 0.2 2.2 0.9 5.5 1.5 3.3 0.7 9.6 2 14 3.1 4.4 1.1 10.5 3.3 13.5 5 3 1.6 8.2 5.2 11.5 8.1 3.3 2.8 7.5 7 9.4 9.2 1.8 2.3 3.7 4.9 4.2 5.8 0.7 1.4 0.3 2.2-1.4 3.3-2 1.3-2.9 1.2-9.2-1.3-6.4-2.4-8.2-2.6-22-2.7-12.9 0-15.9 0.3-21.5 2.2-3.6 1.2-10.3 4.5-15 7.3-4.7 2.8-12.8 8.6-18 12.8-5.2 4.2-17.4 15.3-27 24.7-9.6 9.4-20.2 19.1-23.5 21.6-3.3 2.5-10 6-14.6 9-4.7 3-9.4 5.8-10.5 6.2-1.1 0.4-5.4 1.4-9.5 2.1-4.2 0.8-10 1.1-13.3 1.4-4.8 0.5-7 0.3-11.2-1.4l-7.4-2.7c0 3.5 3.3 9.5 4.9 12.8 1.8 3.6 5.3 8.3 8.8 11.6 3.2 3.1 8.7 7.1 12.3 8.9 3.6 1.8 9.9 4.1 14 5.1 4.4 1.1 10.9 1.9 15.7 1.9h8.3c0 4.7-1.2 7.9-2.8 10.3-1.5 2.4-4.3 5.9-6.2 7.9-1.9 1.9-6 6.3-9 9.8-3 3.5-8.4 8.6-12 11.2-3.6 2.7-9.4 6.3-13 8.1-5.2 2.5-8.2 3.2-15.4 3.6-5.7 0.4-11.3-0.3-11.7 0.5-0.3 0.7 0.5 2.4 1.9 3.8 1.3 1.5 7.2 5.9 10.2 8.3 3 2.3 8 5.5 11 7 3 1.5 8 3.7 11 4.7 3.6 1.3 9.6 2.2 17.4 2.6 6.5 0.4 12 1 12.2 1.4 0.2 0.5-0.1 3.2-0.7 6-0.7 2.9-2.3 7.5-3.7 10.3-1.3 2.7-4.3 7.7-6.7 11-2.3 3.3-6.2 7.7-8.6 9.7l-4.4 3.6c3.1 3.4 6.5 5.5 9.5 7 4.8 2.4 6.6 2.7 15 2.6 7.1 0 11-0.6 15.5-2.3 3.3-1.2 8.4-3.7 11.3-5.6 2.8-1.9 7.7-6.1 10.7-9.3 3.1-3.1 8.6-10.9 12.3-17.2 3.6-6.3 9.2-14.9 12.3-19 3.1-4.1 9.3-11 13.8-15.3 4.4-4.2 12.2-10.3 12.7-10.3 0.6 0 1.3-0.8 1.6-1.8 0.5-1.5-3.5 1.3-6.3 3.2-1.9 1.2-5.4 3.3-7.9 4.6-2.5 1.3-11 5.1-19 8.4-8 3.3-17.3 6.7-20.8 7.6-5 1.3-6.5 1.4-7.9 0.3-0.9-0.6-3.6-5.3-5.9-10.2-2.3-4.9-5-11.9-5.9-15.5-1.2-4.4-1.8-10.8-1.8-19.5-0.1-10.4 0.3-14.8 2.1-22 1.3-4.9 4.1-12.4 6.2-16.5 2.2-4.2 6.8-10.6 10.4-14.5l6.5-7c-2.2-9.4-2.1-11.5-1.1-15.2 0.7-2.7 2.5-6.6 4-8.7 1.5-2.2 4.7-5.2 7.2-6.8 2.5-1.6 7-3.6 10-4.5 4.6-1.3 6.4-1.4 11-0.5 3 0.7 6.8 3.6 9.3 5.3 4.2 3 4.9 3.3 10 2.3 3-0.6 11.8-1.9 18.7-1.8 10.9 0 13.5 0.4 20.5 2.8 4.4 1.5 10.9 4.3 14.5 6.2 3.6 1.8 9 5.5 12.2 8.1 3.1 2.7 8.3 8.1 11.7 12 4.8 5.8 6 7.8 5.5 9.5-0.4 1.3-2 4.3-3.7 6.8-1.7 2.5-6.7 9.3-12.4 13.7-5.6 4.5-11.6 10.1-11.5 10.1 0.2 0.1 3.4-1.5 7.3-3.3 3.8-1.9 13.7-5.8 18.9-7.8 5.2-1.9 14.9-5.2 21.5-7.2 6.6-2 17.4-4.7 24-5.9 6.6-1.3 16.7-3.1 22.5-4 5.8-0.8 14.3-1.9 19-2.2 6.8-0.5 9.7-1.3 14.5-3.8 3.3-1.7 8.5-5.6 11.6-8.6 3.1-3 6.6-7.4 7.8-9.8 1.1-2.3 2.8-7 3.6-10.5 0.8-3.4 1.5-8.8 1.5-12 0-3.1-0.7-7.8-1.6-10.5-0.9-2.6-3.5-7.7-5.7-11.5-2.3-3.7-5.2-8.7-5.7-8.7-0.6-0.1-1.3 1.6-1.7 3.7-0.4 2.1-1.7 8.7-3.5 12.3-2.1 4.2-5.7 9-10.3 13.5-4.6 4.6-9.5 8.3-14.2 10.8-4 2-8.3 3.7-9.5 3.7-1.3-0.1-2.8-0.8-3.5-1.8-0.7-0.9-1.3-2.5-1.3-3.5 0-0.9 1-5 2.1-9 1.8-5.8 2.1-8.6 1.6-14.7-0.4-4.1-1.5-10.9-2.6-15-1-4.1-3.3-10.9-5-15-1.7-4.1-5.4-11.1-8.3-15.5-2.9-4.4-8.3-10.9-12-14.5-3.6-3.6-10.1-8.6-14.5-11.2-4.3-2.6-11.9-6.1-16.8-7.7-4.9-1.7-13.3-3.7-18.5-4.5-5.2-0.9-14.7-1.5-21-1.5-6.3 0.1-12.6 0.3-14 0.6z"/>
		<path id="Layer 3" class="s4" d="m211 356c0 0 45.1 13.9 81.9-56.8 9.5-18.2 36.4-14.4 36.4-14.4l-45.3 65.2-27 18-26 4-21-11zm183.5-130.3c0 0 62.2-25 92.2-25 30 0 38.5-7.8 44.8-42.6 3.3-18.4 8.5 5.9 8.5 5.9l-7 32-17 19-32 7-50 10-46 17-13-4 8-15z"/>
		<path id="Path 0" class="s5" d="m500.1 293.5l-2.4 1.6 0.3 41.9c4.6 2.3 6.6 3 7.2 3 0.7 0.1 2.3-0.7 3.4-1.7 2.1-1.7 2.2-3 2.8-21.5l0.6-19.8c-4.3-3.9-6.4-5.1-7.5-5-1.1 0-3.1 0.7-4.4 1.5zm154.4 186.7c-1 1.2-1.7 3.7-1.6 5.5 0.1 2.3 0.8 3.7 2.3 4.7 1.6 1 7.7 1.6 20.8 2.2l18.5 0.7c3.5-4.5 4.6-6.8 4.5-8 0-1.3-0.8-3.1-1.8-4.1-1.4-1.5-4.1-1.9-15.7-2.5-7.7-0.4-16.6-0.7-19.7-0.7-4.7 0-6 0.4-7.3 2.2zm-153.5 152.4c-1.9 1.3-2 2.3-2 21.4 0 13 0.4 19.8 1 19.5 0.5-0.3 1 0.3 1 1.3 0 0.9 1 2.3 2.2 3.1 1.3 0.7 3.4 1.1 4.8 0.7 1.4-0.3 3-1.7 3.8-3.3 0.7-1.5 1.2-4 1.2-5.5 0-1.6-0.6-3-1.3-3.1-0.9-0.3-1.3-4.7-1.5-16.8-0.1-9-0.5-16.7-1-17.2-0.4-0.4-1.9-0.9-3.4-1.1-1.5-0.2-3.7 0.3-4.8 1zm93-319.6c-0.8 0.5-3.6 4.4-6.1 8.7-2.5 4.3-6.9 12.2-9.8 17.6-2.8 5.3-5.1 10.3-5.1 11 0 0.6 1.3 2.4 2.8 4 1.5 1.5 3.6 2.7 4.7 2.7 1.1 0 2.7-0.5 3.7-1.2 0.9-0.7 5.5-8.9 10.2-18.3 4.7-9.3 8.6-17.8 8.6-18.7 0-1-1.4-2.9-3-4.3-1.7-1.4-3.3-2.5-3.8-2.5-0.4 0-1.4 0.5-2.2 1zm-186.5 2.8c-1.6 1.5-2.8 3.7-2.7 4.8 0.1 1 4.1 9.6 8.9 18.9 7.5 14.4 9.3 17.3 12.3 18.9 3.1 1.7 3.8 1.7 6.5 0.5 1.6-0.8 3.4-2.6 4-4.1 0.9-2.3 0.4-3.6-4.6-11.5-3.1-4.8-7.4-12.2-9.4-16.3-2.1-4.1-4.6-8.7-5.6-10.2-1.1-1.6-2.4-2.6-2.9-2.3-0.6 0.3-1.2 0.1-1.5-0.5-0.3-0.5-0.9-1-1.3-1-0.5 0-2.1 1.3-3.7 2.8zm224 94.4l5.4 4.3c7.4-3.9 15-7.9 21.6-11.4 6.6-3.5 12.6-7.1 13.3-8 0.7-0.9 1.2-2.7 1.2-4.1 0-1.4-0.7-3.5-1.5-4.7-1.1-1.6-2.5-2.3-4.8-2.2-1.8 0-6.5 1.9-11.2 4.4-4.4 2.5-8.2 4.5-8.5 4.5-0.2 0-9.6 6.2-14.7 10.2-4.6 3.7-0.8 7-0.8 7zm-290.5-22.2c-1.1 1.1-2 3-2 4.3-0.1 1.2 0.7 3.2 1.7 4.4 1 1.2 8.4 6 16.5 10.7 8.2 4.7 15.7 8.6 16.8 8.6 1.1 0 2.9-0.9 4-2 1.1-1.1 2-3.3 2-5 0-1.6-0.8-3.8-1.8-4.7-0.9-1-8-5.5-15.7-10-8.2-4.8-15.1-8.3-16.8-8.3-1.5 0-3.6 0.9-4.7 2zm3.5 91.6c-0.6 0.2-7.1 0.5-14.5 0.6l-13.5 0.3c-0.6 8.5-0.3 9.1 1.9 10.3 1.8 0.8 8.1 1.2 19.3 1.3 14.9 0 17-0.2 18.6-1.8 1-1 1.8-3.2 1.7-5 0-2.3-0.7-3.8-2.3-4.8-1.2-0.8-4-1.5-6.2-1.4-2.2 0-4.5 0.2-5 0.5zm288.6 76.9c-1.8 1.2-2.3 2.5-2.2 5.1 0.1 2.1 0.9 4.2 2.3 5.5 1.3 1.1 8.8 5.8 16.8 10.5 8 4.6 15.5 8.4 16.7 8.4 1.4 0 3-1.1 4-2.7 0.9-1.6 1.6-3.9 1.6-5.3-0.1-1.4-1-3.2-2-4.1-1-0.9-8-5.3-15.6-9.7-7.5-4.5-14.9-8.4-16.5-8.8-1.6-0.3-3.6 0.1-5.1 1.1zm-276.6 7.1c-8.3 4.2-16 8.3-17.3 9-1.9 1.2-2.1 2-1.6 6.2 0.3 2.6 1.1 5.3 1.7 6 1 1 2 1 5.2-0.2 2.2-0.7 10.7-4.7 19-8.8 8.2-4.1 15.3-8.2 15.7-9.1 0.5-1 0.8-2.8 0.8-4.2 0-1.4-0.9-3.4-2-4.5-1.1-1.1-3-2-4.3-2-1.2 0-9 3.4-17.2 7.6zm68.8 46.7c-1.2 1.2-4.9 7.4-8.3 13.7-3.4 6.3-7.5 13.5-9.1 16-1.6 2.5-2.9 5.5-2.9 6.8 0 1.2 1.1 3.3 2.5 4.7 1.4 1.4 3.5 2.5 4.7 2.5 1.3 0.1 3-0.7 3.9-1.7 0.9-1 4.5-7 8.1-13.3 3.6-6.3 7.9-14.2 9.7-17.5 1.7-3.3 3.1-6.8 3.1-7.7 0-1-0.9-2.7-2-3.8-1.1-1.1-3.3-2-4.8-2-1.7 0-3.7 0.9-4.9 2.3zm151.7 1.7c-1.4 1.4-1.8 2.7-1.4 4.3 0.4 1.2 4.3 9.1 8.8 17.6 4.4 8.5 9.2 16.4 10.6 17.8 1.8 1.7 3.2 2.2 5 1.7 1.4-0.4 3.5-1.6 4.8-2.8 1.2-1.1 2.2-2.7 2.2-3.3 0-0.7-2.1-5.2-4.8-10-2.6-4.9-6.3-11.9-8.2-15.6-1.9-3.8-4.5-7.9-5.8-9.3-1.5-1.7-3.3-2.4-5.7-2.4-2.2 0-4.3 0.8-5.5 2z"/>
		<path id="Path 0" fill-rule="evenodd" class="s6" d="m384.5 58.1c5.5 0 14.2 0.6 19.3 1.4 5 0.8 12.9 2.7 17.4 4.1 4.6 1.5 10.6 3.8 13.3 5.2 2.8 1.3 8.4 4.8 12.5 7.5 4.1 2.8 10.4 7.8 13.9 11.1 3.5 3.4 9.1 9.5 12.4 13.6 3.3 4.1 7.6 10.9 9.7 15 2 4.1 4.7 10.4 5.8 14 1.1 3.6 2.6 9.9 3.2 14 0.6 4.1 0.8 9.8 0.4 12.5-0.3 2.7-1 5.6-1.5 6.3-0.6 0.8-0.4 1.5 0.6 1.9 1.1 0.6 2.9-0.5 6.1-3.7 2.6-2.6 6.3-8 8.7-12.9 3.8-7.6 4.2-9.2 4.2-16 0-4.2 0.4-8.2 0.8-8.8 0.4-0.7 1.9-1.3 3.5-1.3 1.5-0.1 3.6 0.7 4.8 1.7 1.1 1 4.3 4.5 7.1 7.8 2.7 3.3 6.6 8.5 8.6 11.5 2 3 4.8 8.7 6.3 12.5 2.2 5.7 2.7 8.6 2.7 16 0 7-0.5 10.3-2.3 15-1.3 3.3-4.2 9.1-6.4 12.9-2.3 3.7-5.8 8.6-7.8 10.7-2.1 2.2-3.5 4.3-3 4.8 0.4 0.4 6.3 1.6 13.2 2.5 6.9 0.9 15.4 2.4 19 3.2 3.6 0.8 9.5 2.5 13.3 3.7q6.7 2.2 7.8 1.2c0.6-0.7-1.2-2.8-5.7-6.5-3.7-3-7.7-6.7-10.9-10.9l3.5-5.6c1.9-3.1 6.6-9 10.5-13.2 3.9-4.3 10.5-9.9 15-12.8 4.4-2.9 10-6.1 12.5-7.2 2.5-1.1 7.6-2.8 11.5-3.8 4.8-1.3 10.5-1.9 18-1.9 6 0 13.4 0.5 16.3 1.2 5.1 1.2 5.3 1.1 9.5-1.8 2.3-1.7 6.5-3.5 9.2-4.1 2.8-0.6 7.3-0.7 10-0.3 2.8 0.3 6.8 1.4 9 2.3 2.2 0.9 5.2 3.3 6.7 5.2 1.4 1.8 3.4 5.2 4.3 7.4 1.1 2.6 1.8 6.5 1.7 18l5.2 5.5c2.9 3 6.7 7.8 8.6 10.5 1.9 2.8 4.7 7.8 6.2 11.3 1.5 3.4 3.5 9.2 4.4 12.9 1 3.9 1.7 11 1.7 16.8 0.1 5.9-0.6 13.1-1.6 17.5-1 4.1-3.4 10.9-9.2 22.5l-5.5-0.4c-3.3-0.2-8.2-1.5-12-3.3-3.6-1.6-8.3-3-10.5-3.2-2.2-0.1-5-0.8-6.2-1.4-1.5-0.8-2.5-0.8-2.8-0.2-0.3 0.6 4.8 6.3 11.3 12.7 6.5 6.5 15.1 15.9 19.1 20.8 4 4.9 10.9 14.6 15.5 21.5 4.6 6.9 10.6 16.6 13.4 21.5 2.9 4.9 7.7 14.6 10.8 21.5 3.1 6.9 6.9 16.1 8.6 20.5 1.6 4.4 4.5 13.9 6.3 21 1.8 7.1 4 17.3 4.9 22.5 0.9 5.2 2.1 14.7 2.6 21 0.6 6.3 1.4 11.7 1.7 12 0.3 0.3 4.6 1.5 9.7 2.8 5 1.2 9.5 1.9 9.9 1.5 0.4-0.5 1.4-4.9 2.2-9.8 1-6.6 2.4-10.9 5.1-16 2-3.9 7.8-12.9 12.9-20 5.1-7.1 10.8-15.9 12.8-19.5 1.9-3.6 4.3-9.2 5.3-12.5 1.4-4.8 1.7-8.6 1.4-19-0.3-7.1-0.5-20.6-0.5-47l3.7-7.5c2.1-4.1 5.5-9.3 7.5-11.4 2.1-2.2 6-4.9 8.8-6.2 2.7-1.3 7.2-2.6 10-3 3.4-0.4 6.9 0 11 1.1 3.3 1 7.8 2.7 10 3.8 2.2 1.1 6 3.4 8.5 5.2 2.5 1.8 6.4 5.7 8.7 8.6 2.3 3 5.6 8.3 7.4 11.9 1.7 3.6 4 9.9 5 14 1.4 5.3 1.9 10.9 1.9 19 0 6.3-0.5 14.4-1.1 18-0.5 3.6-2.1 10.3-3.5 15-1.4 4.7-2.6 9.2-2.7 10-0.2 1.2 2 1.6 11.3 2.2 6.3 0.4 14.9 1.7 19 2.8 4.1 1.2 11.5 4.1 16.5 6.5 5 2.4 10.8 5.9 13 7.7 2.2 1.9 6.1 6.6 8.6 10.4 2.6 3.8 5.7 9.6 6.9 12.9 1.8 4.6 2.3 8.2 2.4 15.5 0.1 8.2-0.3 10.6-5.8 25.5l3.8 8.5c2.8 6.2 4 10.4 4.4 15.5 0.4 5.5 0 8.6-1.8 14.5-1.2 4.1-3.6 10.2-5.2 13.5-1.7 3.3-4.2 7.6-5.7 9.5-2.4 3.2-2.6 4.1-2.2 11 0.2 5-0.2 9.5-1.4 13.5-0.9 3.3-3.1 8.2-4.8 10.9-1.8 2.7-5.8 7.3-9 10.3-3.4 3.2-7.4 5.8-9.8 6.5-2.3 0.7-4.5 1.9-4.8 2.6-0.3 0.7-3.5 2.3-7.1 3.5-5.8 2-8.5 2.2-25.5 2.2-14.5-0.1-21-0.5-27.5-1.9-4.7-1-12.8-2-18-2.2-5.2-0.2-12.2-1-15.5-1.9-3.3-0.9-8.7-2.8-12-4.4-3.4-1.6-9.2-5.7-13.3-9.4-5.4-5-8.1-6.8-11-7.3-2-0.3-5.1-1-6.7-1.5-1.6-0.5-5.6-2.6-8.7-4.6-3.1-2.1-7.1-5.6-8.8-7.8-1.7-2.2-5-7.7-7.3-12.3-2.3-4.5-4.5-8.2-5-8.2-0.4 0-2.8 5.7-7.9 8.2-4.8 2.4-9.1 3.3-9.1 3.3l-3.9 9.5c-2.1 5.2-7.1 16.3-11.3 24.5-4.1 8.2-10.7 20-14.6 26-3.9 6-9.2 13.7-11.8 17-2.5 3.3-7.7 9.8-11.7 14.5-3.9 4.7-10.9 12-23.9 24.1l11.5 10.8c6.3 5.9 14.1 14.4 17.2 18.7 3.1 4.3 7.9 12.4 10.7 17.9 2.7 5.5 5.9 13.4 7 17.5 1.1 4.1 2.5 11.1 3.1 15.5 0.7 4.4 1.5 9.4 1.9 11 0.6 2.5 1.3 3.1 4.1 3.5 1.9 0.3 5.1 1.5 7 2.6q3.5 1.9 6.3 7.4c2 4 2.7 7 2.7 10.7 0 2.9-0.9 8.1-2 11.5-1.2 3.5-1.7 6.7-1.3 7.1 0.4 0.4 3 0.2 5.8-0.4 3.3-0.8 9.4-1 18-0.6 8.6 0.4 15.5 1.3 20.3 2.6 3.9 1.2 9.9 3.5 13.2 5.1 3.3 1.6 7.9 4.7 10.1 6.8 2.3 2 6.1 6.4 8.5 9.7 2.3 3.3 5.6 8.9 7.3 12.5 1.7 3.6 3.4 8.5 3.8 10.9 0.5 2.4 1 4.5 1.3 4.7 0.3 0.2 3.2 1 6.5 1.9 3.3 0.8 8.9 2.7 12.5 4.1 3.6 1.4 9 4.1 12 5.9 3 1.9 6.3 4.7 7.3 6.4 0.9 1.7 1.7 4 1.7 5.1 0 1.1-0.6 3.2-1.4 4.8-0.7 1.5-4.2 4.6-7.7 7-3.5 2.4-9.8 5.6-13.9 7.2-4.1 1.6-12.7 4.3-19 6-6.3 1.8-18.5 4.5-27 6-8.5 1.6-18.6 3.3-22.5 3.9-3.9 0.6-14.2 2-23 3.1-8.8 1.1-23.6 2.6-33 3.5-9.4 0.8-24 1.9-32.5 2.5-8.5 0.5-29.7 1.6-47 2.5-17.3 0.8-52.4 2-78 2.6-28.2 0.7-67.4 0.9-99.5 0.5-29.1-0.3-65.1-1.1-80-1.6-14.9-0.6-38.9-1.7-53.5-2.5-14.6-0.9-37.3-2.5-50.5-3.6-13.2-1.1-33.9-3.4-46-5-12.1-1.7-28.5-4.4-36.5-6-8-1.7-18.1-3.9-22.5-5-4.4-1.2-12.3-3.4-17.5-5.1-5.2-1.6-12.6-4.6-16.4-6.7-3.8-2-8.4-5.3-10.2-7.3-2.1-2.4-3.4-4.8-3.4-6.5 0-1.6 0.9-4.3 2-6 1.1-1.8 4.4-4.7 7.2-6.3 2.9-1.7 8.8-4.4 13-6 4.3-1.7 10.8-3.7 14.5-4.6 3.8-0.9 7.4-2.1 8.1-2.7 0.7-0.7 1.5-3 1.9-5.2 0.3-2.2 2.7-8 5.2-13 2.9-5.8 6.6-11.2 10.6-15.4 4.2-4.5 8-7.3 13-9.7 3.8-1.8 10.2-4.1 14-5 4.9-1.3 11.6-1.8 22.5-2 8.5 0 15.8-0.2 16.3-0.3 0.4 0-0.2-2.4-1.3-5.1-1.1-2.8-2-7.3-2-10 0-2.8 0.9-7.4 1.9-10.3 1.1-2.8 3.3-6.4 5-8 1.7-1.5 4.2-2.7 5.6-2.7 1.4 0 3.5-0.4 4.7-0.9 2-0.7 2.5-2 3.6-9.7 0.7-4.9 2-11.4 2.8-14.4 0.9-3 2.5-8.2 3.5-11.5 1.1-3.3 3.6-9.4 5.7-13.5 2.1-4.1 6.4-11.5 9.7-16.5 3.5-5.4 10-13.1 26.5-29.5l-13.3-13.8c-7.2-7.5-17.5-19.4-22.7-26.3-5.2-7-13.1-18.7-17.5-26-4.4-7.4-9.9-17.7-12.2-22.9-2.4-5.2-4.7-9.9-5.1-10.3-0.4-0.4-4.5-0.8-9.2-0.8-4.7 0-9.3 0.1-10.3 0.3-0.9 0.2-4.4 3.2-7.6 6.8-3.2 3.6-8 7.7-10.7 9.2-2.7 1.5-7.6 3.3-10.9 4.1-3.9 0.9-7.9 2.8-11.5 5.4-3 2.2-7.3 4.9-9.5 6-2.2 1.2-7.2 3.1-11 4.3-5.3 1.7-10 2.3-19.5 2.5-6.9 0.2-17.9 1.3-24.5 2.4-6.6 1.2-16.3 2.1-21.5 2.1-6 0-12.5-0.7-17.8-2-4.5-1.1-10.1-3-12.5-4.1-2.3-1.2-6.8-3.9-10-6-3.1-2.2-7.7-6.5-10.2-9.6-2.5-3.2-5.4-8.2-6.5-11-1.1-2.9-2.3-7.9-2.6-11-0.4-3.2-0.2-7.4 0.4-9.3 1-3.3 0.8-3.7-2.4-7-1.9-1.9-4.8-5.5-6.4-8-1.6-2.5-3.9-7.2-5-10.5-1.2-3.3-2.3-10-2.7-15-0.4-6.7-0.1-10.6 1.1-15.2 0.9-3.5 2.8-8.7 4.2-11.5 2.5-5.2 2.5-5.4 0.8-9.3-1-2.4-1.9-7.8-2.2-13.5-0.3-5.8 0-11.8 0.8-15.5 0.7-3.3 2.9-9.1 4.8-13 2.3-4.5 5.9-9.3 10.1-13.5 4-4 9.4-8 13.6-10.2 3.8-2 10.8-4.6 15.5-5.7 4.7-1.1 13.9-2.5 20.5-3.1 6.6-0.7 12.2-1.4 12.5-1.6 0.3-0.2-0.9-4.3-2.7-9.1-1.7-4.8-3.9-12.9-4.8-17.8-1.3-6.7-1.6-12.1-1.2-21 0.3-6.6 1.3-14.9 2.2-18.5 1-3.6 3.1-9.4 4.7-13 1.6-3.7 4.9-8.6 7.6-11.3 2.6-2.7 7.6-6.6 11.2-8.8 4.2-2.5 9.2-4.4 14-5.5 4.8-1 10.1-1.4 14.5-1.1 5.2 0.4 8.7 1.3 13.9 3.8 4.2 2.1 8.2 5 10.3 7.4 1.8 2.2 4.4 6.3 5.8 9 1.3 2.8 2.7 6.8 3 9 0.4 2.2 1.1 4.4 1.6 5 0.6 0.6 1.8 0.1 3.6-1.5 1.6-1.3 5.2-4.7 8.1-7.5 3-2.7 6.7-6.9 8.3-9.2 1.6-2.4 2.7-4.7 2.4-5.3-0.3-0.6-2.6-1.3-5.3-1.6-2.6-0.3-7.2-1.2-10.2-2.1-3-0.8-8.9-3.3-13-5.5-4.1-2.2-10-5.9-13-8.3-3-2.3-7.6-6.4-10.1-9.1-2.5-2.7-5.8-7.4-7.3-10.4-1.5-3-2.6-6.6-2.4-8 0.2-2 0.9-2.5 3.8-2.6 1.9-0.1 7.1-0.5 11.5-0.7 4.4-0.3 10.5-1.5 13.5-2.6 3-1.2 8.2-4.1 11.5-6.6 3.3-2.5 10.2-8.4 15.2-13 6.5-5.9 9-8.9 8.4-9.7-0.5-0.7-5.3-2.8-10.7-4.6-5.5-1.9-13.5-5.3-17.9-7.5-4.3-2.3-10.4-6.4-13.3-9.2-3-2.7-6.6-7.2-8-10-1.3-2.7-3.1-7-3.8-9.5-0.8-2.5-1.4-7.4-1.4-11 0-3.6 0.4-7.1 0.8-7.8 0.4-0.9 1.8-1.2 3.7-0.9 1.7 0.3 5.7 1.6 9 2.8 4.7 1.8 8 2.3 15 2.3 7.8 0 10-0.4 16-3 3.8-1.6 10.6-5.4 15-8.4 4.4-3 10.9-8 14.5-11.1 3.6-3 14.6-13.3 24.5-22.8 12.5-12 21.2-19.5 28.5-24.3 5.8-3.9 13.9-8.7 18-10.8 4.1-2.1 11.3-5 16-6.5 4.7-1.4 11.6-2.9 15.5-3.2 3.9-0.2 7.7-0.7 8.5-0.9 1.2-0.4 1.3-0.7 0.2-1.7-0.7-0.6-2.1-1.3-3-1.4-0.9-0.1-6.2-1.4-11.7-3-8.7-2.3-11.9-2.7-24.5-2.7-13-0.1-14.5-0.3-14.7-1.8-0.2-1 1.6-3.9 3.9-6.4 2.7-2.8 7.5-6.2 12.8-8.9 4.7-2.4 12.6-5.9 17.5-7.8 4.9-1.9 12.8-4.4 17.5-5.6 4.7-1.1 11.6-2.5 15.5-3 3.9-0.4 11.5-0.9 17-1zm-28.5 13c-4.7 1-13.8 3.8-20.2 6.2-6.5 2.3-11.7 4.3-11.5 4.4 0.1 0.1 5.6 1.3 12.2 2.7 7.7 1.7 14.7 3.9 19.5 6.3 5.7 2.8 9.7 5.9 16.7 12.7 5.1 5 9.3 9.6 9.3 10.1 0.1 0.6-0.7 2-1.7 3.2l-1.8 2.2c-15.9-5.5-18.4-5.9-28.5-5.9-7 0-13.8 0.6-17.5 1.5-3.3 0.8-9.6 3.3-14 5.5-4.4 2.2-12.7 7.5-18.5 11.8-5.8 4.4-19.3 16.4-30 26.9-10.7 10.4-23.3 21.8-28 25.3-4.7 3.5-12.3 8.1-17 10.2-4.7 2.1-9.2 4.3-10 4.7-0.8 0.5-4.4 1.4-8 2.1-3.8 0.8-9.2 1-13 0.7-3.6-0.3-8.6-1.6-11.2-2.9-3.3-1.6-4.7-1.9-4.8-1 0 0.6 1.6 4.7 3.6 9 2.4 5.2 5.4 9.6 9.2 13.5 3.2 3.3 8.5 7.3 12.2 9.2 3.6 1.8 9.9 4.3 14 5.4 5 1.4 10.5 2.1 16.2 2.1h8.8c0 5.8-1.4 8.3-6.5 14.5-3.6 4.4-9.1 10.9-12.3 14.5-3.3 3.6-9.4 9-13.8 12-4.3 3-10.2 6.3-12.9 7.4-3.2 1.3-8.6 2.2-15 2.5l-10 0.6c13.3 13 17.1 15.7 24 19.1 4.9 2.4 11.7 5.1 15 5.9 3.3 0.8 10.2 1.5 15.2 1.5 5.2 0 9.5 0.4 9.8 1 0.3 0.6 0 3.4-0.6 6.3-0.6 2.8-2.4 7.7-4 10.7-1.6 3-5 8.2-7.4 11.5-2.5 3.3-6.3 7.5-8.5 9.3l-4 3.2c5 4.1 8.5 6.2 11 7.4 3.6 1.6 6.5 2 14 2 7.2 0 10.9-0.5 15.5-2.2 3.3-1.2 8.9-4.2 12.5-6.6 3.6-2.4 8.6-6.8 11.1-9.8 2.6-2.9 7.2-9.8 10.4-15.3 3.2-5.5 7.7-12.7 10-16 2.4-3.3 6.9-8.9 10.2-12.5 3.3-3.6 9.1-8.9 12.9-11.9 3.8-3 7.1-5.6 7.4-5.8 0.3-0.2 0.3-0.5 0-0.8-0.3-0.3-3.6 1.5-7.5 4-3.9 2.4-14.6 7.6-24 11.5-9.4 3.9-19.7 7.8-23 8.6-5.9 1.5-6 1.5-7.9-0.8-1-1.3-3.6-5.9-5.7-10.3-2-4.4-4.5-10.9-5.4-14.5-1.1-4.2-1.7-11-1.8-19-0.1-9 0.3-14.7 1.7-20.5 1-4.4 3.2-10.9 4.8-14.5 1.6-3.6 4.9-9.2 7.2-12.5 2.4-3.3 6-7.5 8-9.2l3.6-3.3c-2.3-9.9-2.3-11.9-1.2-15.7 0.7-2.7 2.5-6.6 4.1-8.8 1.6-2.2 5.2-5.5 8.2-7.3 3-1.7 7.9-3.7 10.9-4.3 4.2-0.8 6.7-0.8 10.5 0.2 2.7 0.7 6.9 2.8 9.2 4.6l4.3 3.3c12.4-2.7 17.5-3.1 25-2.7 7.8 0.3 12.6 1.2 18.5 3.1 4.4 1.5 10.9 4.3 14.5 6.3 3.6 1.9 9 5.5 12 8 3 2.5 8.3 7.8 11.7 11.9 5 5.8 6.2 7.9 5.7 9.7-0.4 1.2-2.5 4.7-4.7 7.7-2.3 3-6.2 7.7-8.7 10.4-2.5 2.6-6.6 6.3-9.3 8.2-2.6 1.9-4.5 3.6-4.2 3.9 0.3 0.3 5.1-1.7 10.7-4.4 5.7-2.7 15.7-6.8 22.3-9.1 6.6-2.2 17.9-5.6 25-7.5 7.1-1.8 19.3-4.3 27-5.5 7.7-1.2 19.2-2.7 25.5-3.4 9.5-0.9 12.5-1.7 17-4.1 3-1.7 8-5.5 11.1-8.5 3.1-3 6.5-7.3 7.6-9.5 1.2-2.2 2.8-6.7 3.7-10 0.9-3.3 1.6-8.8 1.6-12.2 0-3.8-0.8-8.6-2-12-1.1-3.2-4-8.6-6.3-12.1-2.3-3.5-4.4-6.3-4.7-6.3-0.3 0.1-0.8 2-1.2 4.3-0.4 2.4-2.2 7.2-4 10.8-2.1 4.2-5.7 9-10.2 13.5-4.6 4.6-9.6 8.3-14.4 10.8-3.9 2-8 3.7-9 3.7-0.9 0.1-2.5-0.7-3.5-1.7-1.2-1.2-1.6-2.8-1.4-4.8 0.2-1.7 1.2-5.5 2.2-8.5 1.4-4.3 1.7-7.3 1.2-13.5-0.3-4.4-1.5-11.4-2.5-15.5-1.1-4.1-3.4-10.9-5.1-15-1.7-4.1-5.3-10.9-7.9-15-2.7-4.1-7.8-10.4-11.3-13.9-3.5-3.6-9.3-8.4-12.9-10.7-3.6-2.3-9.2-5.4-12.5-6.9-3.3-1.4-10.5-3.8-16-5.2-8.2-2-12.9-2.5-26-2.8-8.8-0.2-17.4-0.1-19 0.1-1.6 0.3-6.8 1.4-11.5 2.5zm308.5 99.1c3.9 1.8 5.6 2.8 6.2 3.5 0.7 0.7 2 1.3 2.8 1.3 0.8 0 4.5 2 8.3 4.5 3.7 2.5 6.8 4.5 6.9 4.5 0.2 0 0.3-1.1 0.3-2.5 0-1.4-0.6-4-1.3-5.7-0.7-1.8-2.8-4.3-4.5-5.5-2.4-1.7-4.5-2.3-8.5-2.2-2.8 0-6.3 0.5-7.7 1.1zm-58 8.6c-3.3 1.5-8 4.2-10.5 5.9-2.5 1.7-6.5 5-8.9 7.4-2.5 2.4-6.2 6.6-8.3 9.4-2.1 2.7-3.7 5.1-3.6 5.2 0.2 0.1 4.1 0.9 8.8 1.8 4.7 0.8 12.8 2.7 18 4.1 5.2 1.4 14.9 4.6 21.5 7.1 6.6 2.5 16.7 6.9 22.5 9.8 5.8 2.9 14.5 7.9 19.5 11.3 5 3.3 16.8 12.8 26.3 21.1 9.4 8.3 17.4 14.9 17.6 14.8 0.2-0.1 1.3-2.7 2.4-5.7 1.1-3.1 2.6-9.6 3.3-14.5 1-7 1-10.8 0.2-16.5-0.6-4.2-2-10-3-13.1-1-3-3.4-8.1-5.3-11.3-1.9-3.3-5.3-7.8-7.6-10-2.2-2.3-9.9-8-17-12.8-7.1-4.7-15.6-9.9-18.9-11.6-3.3-1.7-9.1-4-13-5.2-4-1.2-10.8-2.3-16-2.6-5.9-0.3-11.2 0.1-15.5 1.1-3.6 0.8-9.2 2.7-12.5 4.3zm-318.6 8.2c-1.1 1.9-1.9 4.7-1.9 6.2 0 1.5 0.2 2.8 0.5 2.8 0.3 0 3.5-2 7.3-4.4 3.7-2.4 8.8-5.4 11.4-6.8 4.7-2.3 4.7-2.3 2.3-3.6-1.4-0.7-4.4-1.2-6.7-1.2-2.4 0-5.8 0.7-7.7 1.7-1.8 1-4.2 3.3-5.2 5.3zm26.6 6c-4.4 2.1-12.3 6.7-17.5 10.2-5.2 3.4-12.4 9.2-16 12.8-3.6 3.6-8.2 9.5-10.3 13-2.1 3.6-4.9 9.9-6.2 14.2-1.4 4.3-2.8 11.5-3.1 16-0.5 6-0.2 10.5 1.1 16.8 0.9 4.6 2.8 11 4.1 14.2l2.4 5.8c21.3-19 30.2-26.8 33.5-29.6 3.3-2.8 8.5-6.9 11.5-9.1 3-2.2 15.2-9.8 27-16.8 11.8-7 24.6-14.4 28.5-16.3 3.9-1.9 11.2-5.8 16.3-8.6l9.3-5.1c-5.9-6-10.3-9.6-13.6-11.8-3.3-2.3-8.7-5.4-12-6.9-3.3-1.5-8.7-3.5-12-4.3-3.4-0.9-9.9-1.5-15-1.5-4.9 0.1-11.5 0.8-14.5 1.6-3 0.8-9.1 3.2-13.5 5.4zm155 36.5c-6.6 0.8-16.3 2.7-21.5 4-5.2 1.3-13.3 3.7-18 5.3-4.7 1.6-11.4 4.1-15 5.6-3.6 1.5-11.4 5.2-17.5 8.3-6 3-16.6 9.1-23.5 13.7-6.9 4.5-17 11.8-22.5 16.2-5.5 4.5-15.9 13.7-23 20.6-7.1 6.9-15.7 15.7-19 19.7-3.3 3.9-8.8 11.1-12.3 15.9-3.5 4.9-10.7 17.6-16.6 29.2-5.6 11.2-11.7 24.5-13.5 29.5-1.8 4.9-4.4 12.8-5.7 17.5-1.4 4.6-3.6 13.9-4.9 20.5-1.3 6.6-2.9 17.1-3.4 23.5-0.6 7.4-0.7 20.1-0.1 36 0.6 13.4 1.5 28.5 2.1 33.5 0.6 4.9 2.7 14.4 4.6 21 1.9 6.6 5.9 18.3 9 26 3 7.7 8.4 19.6 11.9 26.5 3.4 6.8 9.8 17.9 14.2 24.5 4.3 6.6 11.4 16.5 15.9 22 4.4 5.5 12.3 14 17.4 18.9 5.2 4.9 13.5 12.1 18.4 16.1 5 3.9 12.6 9.6 17 12.7 4.4 3 12.5 8 18 11 5.5 3.1 14.1 7.4 19 9.5 5 2.2 13.4 5.6 18.8 7.6 5.3 2 15.9 5.3 23.5 7.2 7.5 2 20.2 4.7 28.2 6.1 9.5 1.7 20.1 2.7 31 3 12.4 0.5 19.5 0.2 28.5-1.1 6.6-0.9 18.8-3.2 27-5.1 8.3-1.9 18.6-4.6 23-6 4.4-1.5 13.2-4.9 19.5-7.6 6.3-2.7 15.3-7 20-9.5 4.7-2.5 12.3-6.9 17-9.7 4.7-2.8 12.3-7.8 17-11.1 4.7-3.3 12.3-9.2 17-13.2 4.7-3.9 11.3-9.8 14.7-13 3.4-3.2 9.2-9.2 13-13.4 3.7-4.1 10.3-12.7 14.5-19 4.2-6.3 10-15.7 12.8-20.9 2.8-5.3 7.1-14 9.6-19.5 2.5-5.5 6.5-15.4 8.9-22 2.8-8 5.9-19.7 8.9-34.5 2.5-12.4 5-27 5.6-32.5 0.7-5.9 0.9-14.4 0.5-20.5-0.3-5.8-1.3-16.8-2.1-24.5-0.8-7.7-2.7-19.2-4.1-25.5-1.4-6.4-4.4-17.4-6.8-24.5-2.3-7.2-6.5-18.2-9.2-24.5-2.7-6.4-7.6-16.3-10.7-22-3.2-5.8-9.1-15.5-13.1-21.5-4-6.1-10.6-14.9-14.7-19.5-4.2-4.7-12.9-13.7-19.4-20.1-6.6-6.4-17.1-15.4-23.4-20.1-6.3-4.7-15.5-11.1-20.5-14.1-5-3-14.1-8-20.2-11.1-6.2-3.1-15.7-7.4-21-9.5-5.4-2.2-14.8-5.5-20.8-7.4-6-1.9-15.4-4.5-20.7-5.6-5.4-1.2-14.2-2.8-19.5-3.6-5.4-0.7-14.3-1.6-19.8-1.9-5.5-0.2-14.9-0.1-21 0.4-6 0.5-16.4 1.6-23 2.5zm162.8 18c1.2 0.9 5.2 3.5 8.8 5.8l6.6 4.2 3.2-7.8c-4.3-3.9-7.3-6.1-9.9-7.1-2.4-1-5.2-1.7-6.1-2.1-1.1-0.5-2.1 0.2-3.2 2.4-1.6 3-1.6 3.1 0.6 4.6zm-302.8 17.2c0 3 0.8 5.2 3 8.2 1.6 2.2 3.1 3.8 3.6 3.8 0.5 0 1.6-0.8 2.6-1.5 1-0.7 6-5.3 11.9-9.6 5.9-4.3 7.6-5.7 7.6-6 0-0.3 0.3-0.4-0.9-1.6-1.5-1.5-1.8-1.1-4.8-3.7-2.2-1.8-4.8-3.3-5.7-3.3-0.8 0-4.9 2.1-9.3 4.8-7.9 4.7-8 4.8-8 8.9zm521 57.6c-2.5 2.1-5.1 5.8-7 9.7-2.9 6.1-3 7.1-3 19.5 0 7.1 0.4 19.5 0.9 27.5 0.6 11.7 0.5 16-0.8 22.5-0.9 4.4-3.3 11.5-5.5 16-2.1 4.4-7.9 13.2-12.7 19.6-4.9 6.4-10.5 14.9-12.5 19-2 4-4.3 9.4-5 11.9-0.8 2.6-1.3 10-1.3 18-0.1 13.1 0 13.6 3 20 1.8 3.5 5.3 8.9 7.9 12 2.8 3.3 4.5 6.2 4.3 7.4-0.2 1.1-1.4 2.2-2.8 2.6-2.2 0.5-2.7 1.4-3.8 7.5-0.8 4.3-1.1 10.5-0.8 16 0.3 4.9 1.2 11.7 2.1 15 0.9 3.3 2.5 7.8 3.5 10 1.1 2.2 3.7 6.2 5.7 8.9 2.2 2.8 7.5 7.5 12.3 10.8 4.7 3.2 10.2 6.7 12.3 7.8 2 1.1 3.9 2 4.2 2 0.3 0-1.7-2.2-4.3-4.8-2.9-2.8-6.3-7.8-8.5-12.2-2-4.2-4.4-10.2-5.2-13.5-0.8-3.3-1.5-8.7-1.5-12 0-3.3 0.4-7.6 1-9.5 0.5-2 2.5-5.9 4.4-8.8 2-2.9 3.6-5.6 3.6-6 0-0.4-0.9-2.5-2-4.7-1.1-2.2-2.4-6.7-2.9-10-0.5-3.5-0.5-8.4 0-11.5 0.5-3.1 2-7.8 3.3-10.5l2.5-5c-3.6-7-5.5-11.7-6.4-15-1.4-4.8-1.7-8.7-1.3-18.5 0.4-11.3 0.7-13.2 3.4-18.9 1.8-4 4.8-8.1 7.9-11.1 2.8-2.6 7.5-6 10.5-7.5 3-1.6 8.6-3.9 12.5-5.2 3.9-1.3 10.8-3.1 15.5-3.9 4.7-0.8 8.8-1.5 9.3-1.5 0.4 0.1 1.8-3.4 3.1-7.7 1.3-4.3 3.1-11.6 4-16.2 0.9-4.7 1.6-13.7 1.6-20 0-8.4-0.5-13.7-2-19.5-1.2-4.4-3.3-10.3-4.8-13-1.5-2.8-5.2-7.5-8.2-10.6-3-3.1-8-6.8-11-8.2-3-1.4-7.5-2.8-10-3.1-2.5-0.3-6.1-0.1-8 0.4-1.9 0.5-5.3 2.5-7.5 4.3zm-708 9.1c-2.2 1.3-6.1 4.5-8.6 7.2-2.5 2.7-5.7 7.3-7.1 10.4-1.5 3-3.4 8.4-4.2 12-0.9 3.5-1.6 10.7-1.6 16 0 5.2 0.7 13.4 1.5 18.2 0.8 4.8 2.7 12.5 4.1 17 1.4 4.5 2.9 8.6 3.2 9 0.4 0.5 5.9 1.9 12.2 3.3 6.3 1.3 13.5 3.2 16 4.1 2.5 0.9 8.1 3.7 12.4 6.2 4.8 2.8 9.3 6.4 11.5 9.2 2.1 2.6 4.5 7.2 5.6 11 1.4 4.7 1.9 9.5 2 18 0 8.6-0.5 12.8-1.9 17-1 3-2.9 7.3-4.2 9.5l-2.3 4c7.1 14.1 7.4 15.6 7.4 23 0 7.3-0.4 9-3.4 15.1l-3.4 6.9c4.6 7.7 6.5 11.5 7.1 13.5 0.7 1.9 1.2 6.4 1.2 10 0 3.5-0.7 9.2-1.6 12.5-0.8 3.3-3.2 9.3-5.2 13.4-2 4.2-5.3 9.2-7.2 11.3-1.9 2-3 3.7-2.5 3.7 0.6 0 4.6-1.7 9-3.8 6.1-3 9.4-5.5 13.9-10.3 3.9-4.2 7.2-9.1 9.7-14.3 2-4.4 4.3-10.7 5-14 0.7-3.3 1.3-10.3 1.3-15.5 0-5.3-0.5-10.9-1.2-12.5-1-2.3-1.9-3-3.9-3q-2.7 0-3-1.8c-0.2-1 1.6-3.9 3.8-6.5 2.3-2.6 5.7-7.9 7.5-11.7 1.8-3.9 4-10 4.8-13.5 0.9-3.6 1.6-9 1.6-12 0-3.1-0.6-8.5-1.4-12-0.7-3.6-3.3-10.4-5.7-15-2.4-4.7-8.1-13.5-12.7-19.5-4.5-6.1-10.2-15.1-12.7-20-2.4-5-4.9-11.7-5.6-15-0.7-3.3-1.3-11-1.2-17 0-6.1 0.8-15.7 1.7-21.3 0.9-5.6 1.6-14 1.6-18.5 0-4.7-0.6-10.2-1.5-12.7-0.8-2.5-2.8-6.2-4.5-8.3-2-2.5-4.7-4.4-8.2-5.6-2.9-1.1-7.3-2.2-9.8-2.5-2.7-0.4-6.7 0-10 0.9-3 0.9-7.3 2.6-9.5 3.9zm53.1 43.6c-1.6 7.9-2.6 15.8-2.6 21.5 0 6.5 0.6 10.8 2.1 15.5 1.2 3.5 3.4 8.9 4.9 12 1.5 3 6.3 10.4 10.7 16.5 4.3 6 9.6 13.7 11.8 17 2.1 3.3 5 8.7 6.6 12 1.5 3.3 3.3 8 4 10.5 0.7 2.4 1.9 5.2 2.8 6.1 1.2 1.2 2.2 1.4 3.9 0.8 2.2-0.9 2.2-1 2-21.7-0.1-15.8 0.3-23.1 1.6-30.7 1-5.5 3.9-16.6 6.6-24.5 2.6-8 7.5-20.2 10.8-27 3.8-7.8 5.8-12.9 5.2-13.5q-0.9-1-2.2 0.2c-0.7 0.6-5.1 2.3-9.8 3.8-4.7 1.4-11.6 2.8-15.5 3.1-4.9 0.4-8.9 0.1-13.5-1.1-3.6-1-8.6-2.8-11.2-4.1-2.7-1.4-6.7-4.2-9-6.4-2.4-2.2-4.6-4-5-4-0.4 0-0.9 0.3-1.2 0.7-0.2 0.4-1.6 6.4-3 13.3zm684.4 54.8c-4.7 1.1-11.2 3.2-14.5 4.6-3.3 1.5-7.4 3.7-9 4.9-1.6 1.3-4.5 5.3-6.2 9-1.8 3.7-3.8 9.2-4.4 12.4-0.6 3.2-0.8 7.8-0.5 10.3 0.4 2.4 1.1 6 1.6 8 0.5 1.9 1.9 4.9 3 6.7 1.4 2.3 2.4 3 3.3 2.4 0.6-0.5 4.8-2.1 9.2-3.4 4.4-1.4 12.3-3.2 17.5-4.1 5.2-0.9 12.6-1.8 16.5-2.2 3.9-0.4 12.2-0.1 18.5 0.6 8 0.8 13.1 1.9 16.8 3.6 2.8 1.3 5.5 3 6 3.9 0.4 0.8 0.3 1.8-0.1 2.2-0.5 0.4-11.5 0.8-24.5 0.8-18.3 0-25.7 0.4-32.4 1.7-4.9 1-11.4 2.7-14.5 3.9-3.5 1.3-7.4 3.8-9.9 6.3-2.6 2.5-4.9 6.3-6.3 10.1-1.6 4.2-2.1 7.2-1.7 10 0.3 2.2 1.7 6.2 3 9 1.4 2.7 4 6 5.8 7.2 1.8 1.2 5.6 3.1 8.3 4.1 2.8 1.1 8.4 2.7 12.5 3.6 5.3 1.2 14.5 1.9 31.5 2.2 18.8 0.4 24.3 0.9 25.3 2 1 1.1 0.3 1.9-4.3 4.4-3.6 1.9-8.7 3.5-14.7 4.6-7 1.2-13.3 1.5-25.3 1.1-14.8-0.4-16.7-0.7-25.5-3.7-5.2-1.8-10.7-3.9-12.2-4.7-2.7-1.3-2.8-1.3-4.2 2.4-0.7 2.1-1.9 6.2-2.6 9.3-0.7 3.1-1 7.2-0.6 9.5 0.4 2.2 2 6.8 3.7 10.2 1.6 3.4 4.6 8 6.7 10.1 2 2.1 5.7 5 8.2 6.5 2.5 1.4 9 3.8 14.5 5.4 9.3 2.5 11.3 2.7 28.5 2.8 15.5 0 19.4-0.3 24-1.9 3-1.1 7.6-3 10.3-4.3 2.6-1.3 6.6-4 8.9-6.1 2.2-2.1 5.4-6.4 7-9.7 2.3-5.1 2.8-7.4 2.8-14 0-4.4 0.5-9.8 1-12 0.5-2.2 2.7-6.5 4.9-9.5 2.2-3.1 5.2-8.2 6.7-11.5 2.3-5 2.8-7.4 2.8-14 0-5.9-0.6-9.3-2-12.5-1.1-2.5-3.5-6.1-5.2-8-1.7-2-3.1-4.2-3.1-5 0-0.9 1.4-4.5 3.2-8 2.6-5.4 3.2-8 3.6-15 0.2-6-0.1-10.3-1.3-14.5-1-3.3-3.7-9.1-6.2-12.8-2.4-3.7-5.9-7.8-7.6-9.2-1.8-1.3-6.3-3.8-10.1-5.5-3.7-1.7-10.4-3.9-14.9-4.9-4.6-1.1-12.1-2.2-16.8-2.4-4.7-0.3-12.5-0.1-17.5 0.3-5 0.4-12.8 1.7-17.5 2.8zm-794 9.1c-4.1 1.2-9.7 3.4-12.4 4.9-2.7 1.5-6.9 4.9-9.3 7.7-2.5 2.7-6 8.1-7.9 12-1.8 3.8-3.8 9.9-4.4 13.5-0.6 4.1-0.7 8.3-0.1 11.5 0.5 2.7 1.5 6.3 2.2 8 0.7 1.6 2.1 4.2 3.1 5.7 1.8 2.8 1.8 2.8-1.6 7-1.9 2.3-4.5 6.5-5.7 9.3-1.8 3.8-2.3 6.8-2.2 13 0 5.9 0.6 9.5 2.3 14 1.3 3.3 4.4 8.7 7 12 2.5 3.3 5 6.6 5.5 7.5 0.6 0.8 1.2 6.6 1.5 13 0.4 9.5 0.9 12.3 3 16.5 1.3 2.7 4.1 6.6 6.2 8.7 2.1 2.1 6.8 5.3 10.6 7.1 3.7 1.9 9.6 4.1 13.2 5 3.6 0.8 9.4 1.8 13 2.2 3.6 0.3 10.6 0.1 15.5-0.5 4.9-0.6 12.3-2 16.3-3.1 3.9-1.1 10-3.2 13.5-4.8 3.4-1.5 7.9-4.5 10-6.7 2.1-2.2 5.3-6.9 7.1-10.4 1.8-3.6 3.6-9 4-12 0.6-3.9 0.3-7.5-0.8-12-0.9-3.6-2.2-7.3-2.9-8.2-1.1-1.6-1.8-1.4-9.2 2.2-4.4 2.2-10.7 4.6-14 5.5-3.3 0.9-10.1 1.8-15 2.1-4.9 0.4-13.6 0.1-19.2-0.5-5.7-0.6-12.9-2.1-16-3.3-3.2-1.2-6.6-3-7.5-4-1-1-1.6-2.2-1.4-2.6 0.2-0.4 9.8-1.1 21.3-1.4 11.4-0.4 24.7-1.4 29.6-2.3 4.8-0.8 12.4-3 16.9-4.8 5.7-2.2 9.6-4.5 12.4-7.2 2.7-2.7 4.4-5.5 5.1-8.5 0.7-2.9 0.8-6.4 0.3-9.5-0.4-2.8-2-7.6-3.4-10.8-2.4-5.3-3.1-6-8.8-8.7-3.5-1.6-9.9-3.8-14.3-4.9-4.4-1.1-12.5-2.6-18-3.2-6.5-0.7-15.7-0.9-26.5-0.4-13.7 0.6-16.7 0.5-17.4-0.6-0.7-1 0-2.2 2.2-4.2 1.8-1.5 5.1-3.3 7.5-4 2.7-0.8 11.2-1.2 23.7-1.2 12.8 0 21.6 0.4 25.5 1.3 3.3 0.8 10.1 2.7 15 4.4l9 3c2.8-3.7 4.6-7.9 5.7-11.7 1.5-5.2 2-8.9 1.6-14-0.3-5-1.2-8.9-3.3-13.4-1.8-3.8-4.7-7.9-7-10-2.2-1.9-6.4-4.6-9.2-5.8-2.9-1.3-8.1-3-11.5-3.9-4.2-1-12.6-1.7-24.8-1.9-10.2-0.3-20.8-0.1-23.5 0.4-2.7 0.4-8.4 1.8-12.5 3zm685.2 56.6c0.3 4.4 0.1 10.2-0.4 13-0.4 2.7-1.2 9.2-1.7 14.5-0.6 5.2-2.1 14.1-3.5 19.7-1.4 5.6-2.6 11.4-2.6 12.8 0 1.3 0.6 2.8 1.2 3.1 0.8 0.4 2.7-0.9 4.7-3.2l3.4-3.9c0.4-24.7 0.8-27.3 4-38 1.9-6.6 4.9-15.3 6.6-19.3 2.4-5.5 2.8-7.4 1.8-8-0.6-0.4-2.8-1.3-4.7-2-1.9-0.7-4.3-1.2-5.2-1.2-1 0-2.3 1-2.9 2.2-0.7 1.4-1 5.3-0.7 10.3zm15.5 16.5c-0.8 3-2 9.1-2.7 13.5-0.7 4.4-0.9 10.4-0.6 13.5 0.4 3 1.4 8.2 2.2 11.5 0.9 3.3 2.9 8.7 4.5 12 1.7 3.5 5.4 8.5 8.9 12 3.3 3.3 6 5.7 6 5.5 0-0.3-0.9-3.2-2.1-6.5-1.4-4.1-2.2-9.6-2.6-17-0.5-9.2-0.2-13 1.8-22.7l2.4-11.7c-5.8-8.6-8.4-14-9.4-17.4-1.1-3.4-2.1-7.1-2.3-8.2-0.2-1.3-1.1 0.1-2.5 4-1.2 3.3-2.9 8.4-3.6 11.5zm-562.1 9.7l-5.4 10.8c3.7 11 4 14.4 3.9 26.7 0 8.1-0.6 16.8-1.1 19.3-0.6 2.4-1.7 6.1-2.5 8.2-0.9 2.1-1.5 4.1-1.5 4.5 0 0.4 1.3 0.1 3-0.7 1.6-0.9 3.8-2.8 4.9-4.3 1-1.5 3.4-5.9 5.3-9.7 2-3.9 4.5-10.9 5.8-15.5 1.2-4.9 2.4-13.2 2.7-19.5 0.5-8.5 0.2-12.9-1.2-19-0.9-4.4-2.6-10.5-3.7-13.5-1.1-3.1-2.3-5.9-2.7-6.3-0.3-0.4-0.9 1.3-1.4 3.8-0.4 2.4-3.1 9.3-6.1 15.2zm103.8 179.9c-4.9 4.9-11 12-13.5 15.9-2.5 3.8-6.1 9.9-8.1 13.5-2 3.5-5.9 12.5-8.6 20-2.8 7.4-5.5 15.3-6.1 17.5-0.6 2.2-1.1 7.6-1.1 12 0 7.4 0.1 8.1 2.7 10.6 1.6 1.5 4.8 3.6 7.3 4.6 2.5 1.1 7.6 2.3 11.5 2.6 3.8 0.4 9.7 0.2 13-0.3 3.3-0.6 8.5-1.7 11.5-2.6 3-0.9 5.9-1.8 6.5-1.9 0.7-0.2 0.7-1.9 0.1-4.7-0.5-2.4-0.9-7-0.9-10.3 0.1-3.3 1.1-10 2.2-14.8 1.2-4.8 3.3-11.1 4.8-14 1.4-2.9 4.1-7.5 5.9-10.2 1.8-2.8 5.8-7.6 9.1-10.7 3.2-3.1 7.3-6.4 9-7.2 1.8-0.9 3.2-1.8 3-2-0.1-0.3-4-2.4-8.7-4.8-4.7-2.4-12.1-7.2-16.5-10.6-4.4-3.4-9.4-7.4-11.1-8.8l-3.1-2.6zm320.6 9.1c-4.7 3.3-9.9 6.2-11.5 6.4-1.7 0.2-3 0.8-2.9 1.3 0 0.6 2.3 2.2 5 3.5 2.7 1.4 7.8 5.5 11.4 9 3.6 3.6 8.2 9.2 10.1 12.5 1.9 3.3 4.7 9 6.2 12.5 1.4 3.6 3.4 9.7 4.2 13.5 1 4.3 1.5 10.2 1.3 14.9l-0.3 7.9c6.2 2.3 12 3.2 17 3.5 5.7 0.3 11 0 14.5-0.8 3-0.7 6.8-1.9 8.5-2.7 1.6-0.9 4.7-2.8 6.7-4.4 3.6-2.7 3.8-3.1 3.3-7.1-0.4-2.4-1.1-7.6-1.7-11.8-0.5-4.1-2.7-12-4.8-17.5-2-5.5-5-12.4-6.5-15.5-1.5-3-4.7-8.4-7.1-12-2.4-3.5-6.3-8.7-8.7-11.5-2.4-2.7-7.2-7.1-10.8-9.8-3.5-2.6-7.1-5.3-7.9-6-0.8-0.7-2-1.6-2.7-2-0.6-0.4-4 1.6-8 4.7-3.7 3-10.6 8.1-15.3 11.4zm-281.3 28.8c-2.6 3.2-6.3 8.9-8.1 12.4-1.9 3.6-4.1 9-5 12-0.8 3.1-1.8 8.7-2.2 12.5-0.5 5.5-0.4 7.2 0.7 8 0.8 0.5 2.6 0.9 4.1 0.7 2-0.1 4 0.9 6.9 3.6 2.2 2 5.3 6.2 6.7 9.2 2.2 4.6 2.7 6.9 2.7 13.5 0 6.4-0.5 8.9-2.3 12.3l-2.2 4.2c4.4 9.7 6.3 13.9 6.9 15.5l1.3 3c15.7-1.1 42.1-2 68.8-2.6 28.5-0.6 68.3-0.8 96.5-0.4 26.4 0.4 55.6 1 65 1.4 9.3 0.4 19.9 0.7 23.4 0.6h6.5c3.5-9.3 5.1-12.9 5.6-14 0.8-1.5 0.6-3-0.9-6.5-1.1-2.4-2.2-6.9-2.6-10-0.5-4.1-0.1-7.1 1.4-12.2 1.6-5.2 3.1-7.8 6.6-11.3 3.2-3.2 5.6-4.6 8.2-5 2.1-0.3 4.5-1 5.3-1.4 1.2-0.7 1.4-2.5 1.2-8.5-0.1-4.8-1-9.6-2.4-13.3-1.2-3.2-4.1-9.1-6.4-13.3-2.8-5.1-6.7-9.9-12.1-15-7.5-7.1-8.2-7.5-14.9-8.9-6-1.2-7.3-1.1-9.9 0.2-1.7 0.8-8 3.5-14 6-6.1 2.5-16 6.1-22 8-6.1 2-14.4 4.2-18.5 5.1-4.1 0.8-14 2.5-22 3.7-11.1 1.6-19.5 2.2-35.5 2.2-14.7 0.1-24.7-0.4-33.3-1.6-6.7-0.9-18.2-3.2-25.5-5.1-7.2-1.9-18.2-5.1-24.2-7.1-6.1-2.1-12.1-4.6-13.5-5.6-1.4-1-5.2-2.9-8.5-4.2-3.3-1.3-8-2.4-10.5-2.5-3.8-0.1-5.4 0.5-10.5 4.1-3.3 2.4-8.2 7-10.8 10.3zm363 56.5c-2.3 1.7-6.9 4.6-10.2 6.5-3.3 1.9-9.4 4.1-13.5 5-5 1.1-9.8 1.4-14.5 1-3.9-0.3-10.6-1.6-15-2.9-4.4-1.3-9.8-3.2-12-4.3-3.1-1.5-3.9-2.5-3.8-4.2 0.3-1.8 0-2.1-1.9-1.4-1.2 0.4-3.4 1.9-4.8 3.2-1.4 1.4-3.4 4.6-4.4 7-1.3 3.3-1.6 5.6-1.1 8.5 0.5 2.8 1.8 5.1 4.4 7.5 2 2 6.6 5 10.1 6.8 3.6 1.7 8.5 3.5 11 4 3.6 0.6 4.5 1.2 4.7 3 0.3 1.9-0.1 2.2-2.5 1.8-1.5-0.3-7.2-1-12.7-1.6-7.9-0.8-10.3-0.8-11.3 0.2-0.8 0.8-2.2 4.3-3.3 7.8-1.2 4.1-1.9 9.4-1.9 14.3 0 7.5 0.1 7.8 3.5 11.2 1.9 2 5.7 4.7 8.5 6 2.7 1.4 8.3 3.6 12.2 5 4 1.3 10.7 3.1 14.8 4 4.1 0.9 15.4 3 25 4.6 12.5 2.2 22.2 3.2 34 3.6 12.2 0.4 20.4 0.1 31.5-1.1 8.2-1 19.2-2.8 24.2-4.2 5.1-1.3 11-3.2 13-4.3 2.1-1 5.4-3.3 7.3-5.1 3.3-3 3.5-3.4 2.8-7.8-0.3-2.6-1.6-7.1-2.7-10.2-1.1-3-3.8-8.3-6.1-11.7-2.8-4.4-5.8-7.4-9.8-10-3.1-2.1-9.8-5.2-14.7-6.8-8.3-2.8-10.1-3-23.5-3-13 0.1-15.8 0.4-27 3.3-6.9 1.7-16.6 4.5-21.5 6.2-5 1.7-10.2 3-11.8 3-1.7 0-3.1-0.7-3.7-2-0.6-1.1-1-3.1-1-4.5 0-1.5 0.6-2.5 1.5-2.5 0.8 0 7-1.9 13.7-4.1 10.2-3.5 13-4.9 16.4-8.3 2.5-2.4 4.6-5.7 5.3-8.1 0.6-2.2 1.1-6.4 1.1-9.5 0-3.7-0.6-6.5-2-8.7-1.1-1.8-2.7-3.3-3.5-3.3-0.8 0-1.2 0.7-1 1.5 0.3 0.9-1.1 2.7-3.8 4.6zm-457.6 0.7c-0.6 1.2-1.1 4.6-1.1 7.5 0 3.8 0.8 6.6 2.8 10.2 1.5 2.7 4.3 6 6.2 7.3 1.9 1.2 7.8 3.7 13 5.4 5.2 1.7 11.4 4 13.7 5 4.1 1.7 4.3 2 4 5.6-0.2 3.3-0.5 3.8-3.2 4.1-1.7 0.2-9.1-1.7-17-4.2-7.7-2.5-18.3-5.5-23.5-6.8-6.9-1.6-12.6-2.3-21-2.3-6.5 0-13.9 0.6-17 1.3-3 0.8-8.9 3-13 4.9-4.1 2-9.3 5.4-11.6 7.7-2.2 2.2-5.8 7.6-7.9 12-3.3 6.9-3.9 9-3.9 15-0.1 6.9-0.1 6.9 3.9 10 2.2 1.7 6.7 4.2 10 5.4 3.3 1.3 10.3 3.1 15.5 4.2 5.2 1 15.6 2.3 23 3 7.5 0.7 19.5 0.9 27 0.6 8.8-0.3 21.7-1.9 37-4.5 12.9-2.2 27.5-5.2 32.5-6.7 4.9-1.4 11.9-4.1 15.5-6 3.6-1.9 7.4-4.4 8.5-5.5 1.6-1.8 2-3.5 1.9-8.8 0-4.7-0.8-8.9-2.7-14.2-1.5-4.1-3.5-8.4-4.3-9.5-1.4-1.9-1.9-1.9-12.2-0.7-5.9 0.7-11.7 1.2-13 1.2q-2.2 0-2-1.6c0.2-1 2.4-2.3 5.8-3.3 3-1 7.1-2.5 9-3.5 1.9-1 5.4-3.3 7.7-5.2 2.7-2.1 4.9-5 5.9-7.6 1.1-2.8 1.4-5.7 1-8.3-0.3-2.2-1.7-5.7-3.1-7.7-1.4-2.1-3.4-4.2-4.5-4.8-1.6-0.8-2-0.6-2 0.5 0 0.9-3 3.2-6.8 5.3-3.7 2.1-9 4.7-11.7 5.8-4 1.5-7.5 1.9-17 1.9-6.6 0-13.8-0.5-16-1.2-2.2-0.7-8-3.6-13-6.5-4.9-2.9-9.4-6.2-10-7.4-0.5-1.2-1.3-2.4-1.6-2.8-0.3-0.3-1.3 0.2-2.1 1.2-0.9 0.9-2.1 2.7-2.7 4zm99.1 82.1c-1.3 1.8-3.7 4-5.5 4.9-1.8 0.8-7.7 3-13.2 4.9-5.5 1.8-15.9 4.7-23 6.3-7.2 1.6-20 3.9-28.5 5-8.5 1.1-23.6 2.3-33.5 2.7-11.6 0.4-21.9 0.2-29-0.6-6.1-0.7-15.5-2.1-21-3.2-7-1.4-12.8-3.4-19.5-6.7-5.2-2.6-9.9-4.9-10.4-5.2-0.6-0.3-0.6 1.4-0.2 4 0.5 2.5 1.6 6.3 2.5 8.5 1 2.2 3.2 5.3 4.9 6.8 1.9 1.6 7 3.9 12.4 5.6 5.1 1.7 14.5 3.7 20.8 4.7 9.5 1.4 16.1 1.6 37.5 1.1 24.5-0.5 26.9-0.7 43-4 9.3-1.9 21.5-4.7 27-6.1 5.5-1.5 14-4.3 19-6.3 4.9-2 10.9-4.8 13.2-6.2 2.4-1.4 4.7-3.7 5.3-5.1 0.6-1.3 0.9-5.2 0.8-8.5l-0.3-6zm268.3 4.2c0.2 3.6 1 7.1 1.7 7.8 0.7 0.8 4.4 3 8.3 4.9 3.8 2 10.8 5 15.5 6.8 4.7 1.8 12.8 4.4 18 5.8 5.2 1.4 14 3.4 19.5 4.5 5.5 1.1 15.2 2.9 21.5 3.8 8.6 1.4 17.2 1.8 34 1.8 16.8 0 24.8-0.5 31.7-1.7 5.1-1 12.8-2.9 17-4.3 4.3-1.5 9.9-3.7 12.5-5 2.7-1.4 5-3.2 5.3-4.2 0.2-1 0.9-4.7 1.4-8.2 0.5-3.6 0.7-6.8 0.5-7-0.2-0.3-1.2 0.2-2.1 1.1-1 0.9-3.8 2.6-6.3 3.9-2.5 1.2-8.6 3.3-13.5 4.5-5 1.3-15.3 3-23 4-10.9 1.3-18.6 1.6-34.5 1.2-15-0.5-24.8-1.3-36.5-3.2-8.8-1.4-23.2-4.3-32-6.5-8.8-2.2-19.6-5.4-24-7.1-4.4-1.8-9.7-4.6-11.8-6.3l-3.7-3.1zm-132-620.5c10.4 0.2 22.8 0.9 27.5 1.5 4.7 0.6 13.7 2.2 20 3.7 6.3 1.4 17.1 4.3 24 6.5 6.9 2.2 17 6.1 22.5 8.7 5.5 2.6 14 7.3 19 10.5 4.9 3.2 11.9 8.1 15.5 10.9 3.6 2.8 11.2 9.6 16.8 15.2 5.7 5.5 13.9 14.1 18.1 19 4.2 5 9.8 11.7 12.3 15 2.5 3.3 7.1 10.3 10.3 15.5 3.2 5.2 7.6 13.3 9.7 18 2.2 4.7 6.2 15.7 8.8 24.5 2.7 8.8 5.7 20.7 6.8 26.5 1.1 5.8 2.5 14.1 3.1 18.5 0.6 4.4 1.3 15.7 1.6 25 0.3 11.5-0.1 20.9-1.1 29-0.8 6.6-2.6 17.2-4 23.5-1.4 6.3-4.3 16.9-6.5 23.5-2.2 6.6-6.6 17.4-9.7 24-3.2 6.6-9.6 17.6-14.3 24.5-4.6 6.9-12 17-16.3 22.5-4.4 5.5-11.1 13.3-15 17.4-3.9 4-10.9 10.3-15.6 13.9-4.7 3.7-12.3 9.1-17 12-4.7 3-12.1 7.2-16.5 9.4-4.4 2.3-12.7 6-18.5 8.3-5.8 2.3-15.2 5.6-21 7.3-5.8 1.6-16.1 4.1-23 5.6-6.9 1.4-17.9 3.1-24.5 3.7-6.6 0.6-16.7 0.9-22.5 0.6-5.8-0.4-16.9-1.8-24.8-3.2-7.8-1.4-18.6-3.5-24-4.6-5.3-1.2-14.9-3.9-21.2-6.1-6.3-2.1-15.6-5.9-20.5-8.4-5-2.5-12.8-7.1-17.5-10.1-4.7-3.1-12.1-8.3-16.5-11.6-4.4-3.4-11.8-9.3-16.5-13.2-4.7-4-11.4-10.3-14.9-14.1-3.5-3.8-8.9-10.3-12-14.4-3-4.1-8.7-12.9-12.7-19.5-3.9-6.6-8.9-15.6-11.1-20-2.2-4.4-5.3-11.4-6.7-15.5-1.5-4.1-3.8-11.3-5.1-16-1.3-4.7-3.5-14.3-4.9-21.5-1.3-7.1-3.2-17.7-4-23.5-0.9-5.8-1.6-13.9-1.6-18 0-4.1 0.7-13.1 1.5-20 0.9-6.9 2.7-17.9 4-24.5 1.3-6.6 4.2-17.6 6.4-24.5 2.2-6.9 6-17.2 8.4-23 2.4-5.8 7.2-15.4 10.6-21.5 3.5-6 8.4-13.9 10.9-17.5 2.6-3.6 9.2-11.7 14.8-18 5.6-6.3 14.8-16 20.5-21.6 5.7-5.5 14-12.7 18.4-16 4.4-3.2 12.7-8.3 18.5-11.4 5.8-3 14.3-7.3 19-9.4 4.7-2.1 13.7-5.6 20-7.6 6.3-2.1 16.4-4.8 22.5-5.9 6-1.2 15-2.5 20-3 4.9-0.6 17.5-0.8 28-0.6zm-44.5 14c-4.7 0.9-13.9 3.4-20.5 5.6-6.6 2.2-17.9 6.8-25 10.3-7.2 3.4-18.4 9.9-25 14.3-7.5 5-17.5 13.1-26.4 21.4-7.9 7.4-17.8 17.5-21.9 22.4-4.2 5-10.2 13.1-13.5 18-3.2 5-8.3 13.7-11.2 19.5-2.9 5.8-6.9 15-9 20.5-2.1 5.5-5.3 16.1-7.2 23.5-1.8 7.4-4.3 20.4-5.3 28.8-1.1 8.3-2 20.2-2 26.2 0 6.1 0.7 15.6 1.5 21.3 0.9 5.6 2.5 14.5 3.6 19.7 1.1 5.2 3.3 14.2 5 20 1.7 5.8 4.4 13.9 6 18 1.7 4.1 6.4 13.8 10.5 21.5 4.2 7.7 10.1 17.6 13.2 22 3.1 4.3 10.4 12.8 16.2 18.8 5.8 6 13.9 13.8 18 17.2 4.1 3.4 12.6 9.7 18.7 13.9 6.2 4.2 17.3 10.5 24.5 14.1 7.3 3.6 18.7 8.2 25.3 10.4 6.6 2.2 17.6 5 24.5 6.4 6.9 1.4 18.1 3.1 25 3.7 6.9 0.7 17 0.9 22.5 0.5 5.5-0.3 13.8-1.1 18.5-1.6 4.7-0.6 13-1.9 18.5-3 5.5-1.1 16.1-4 23.5-6.4 7.4-2.5 19.8-7.6 27.5-11.4 7.7-3.8 18-9.6 23-12.9 4.9-3.3 13.3-9.6 18.5-13.9 5.2-4.4 13.3-12.2 18-17.4 4.7-5.3 11.7-14.2 15.6-20 3.9-5.7 9.4-14.4 12.2-19.4 2.8-4.9 6.7-12.8 8.7-17.5 2.1-4.7 5-12.3 6.7-17 1.6-4.7 4-13 5.4-18.5 1.3-5.5 3.3-16.9 4.4-25.2 1.1-8.4 2-19.5 2-24.5-0.1-5.1-0.5-14-1-19.8-0.6-5.8-1.7-14.8-2.6-20-0.9-5.2-3.1-14.4-4.9-20.5-1.8-6-4.9-15.3-6.9-20.5-2.1-5.2-5.8-13.5-8.3-18.5-2.5-4.9-7.1-12.8-10.3-17.5-3.2-4.7-10.8-14.1-16.8-21-5.9-6.9-16-17.4-22.3-23.4-6.5-6.2-15.9-13.8-21.9-17.8-5.8-3.8-15.2-9.3-21-12.2-5.8-3-14.8-7-20-8.9-5.2-2-14-4.7-19.5-6.1-5.5-1.4-14.5-3.2-20-4.1-5.5-0.9-18.1-1.8-28-2-9.9-0.2-22.5 0.1-28 0.5-5.5 0.5-13.8 1.7-18.5 2.5z"/>
	</g>
</svg>